<svg version="1.0" xmlns="http://www.w3.org/2000/svg" width="736.000000pt" height="736.000000pt" viewBox="0 0 736.000000 736.000000" preserveAspectRatio="xMidYMid meet">

<g transform="translate(0.000000,736.000000) scale(0.100000,-0.100000)" fill="#9caf88" stroke="none">
<path d="M5139 6785 c-199 -40 -397 -182 -513 -368 -127 -203 -140 -401 -39 -601 91 -181 206 -305 473 -505 265 -200 401 -343 499 -524 93 -172 140 -335 141 -484 l0 -83 -162 0 c-234 0 -546 -37 -613 -73 -54 -28 -61 -91 -15 -130 17 -15 30 -36 30 -48 0 -27 46 -72 207 -201 231 -187 246 -227 126 -339 -26 -25 -90 -73 -141 -108 -51 -34 -102 -77 -113 -94 -31 -50 -22 -156 25 -274 50 -129 49 -138 -21 -171 -71 -32 -144 -38 -281 -23 -116 12 -144 6 -163 -41 -15 -37 -4 -74 31 -99 37 -26 256 -45 349 -29 138 23 253 99 281 185 17 53 9 104 -39 234 -23 63 -40 119 -37 126 2 7 42 37 88 67 180 118 258 221 258 343 0 119 -60 193 -328 410 -50 40 -69 61 -60 66 20 10 192 28 340 35 151 7 482 -10 614 -31 260 -42 411 -151 534 -388 59 -113 113 -256 151 -401 58 -222 120 -525 144 -701 14 -99 36 -256 48 -350 13 -93 23 -172 21 -174 -4 -5 -86 67 -263 227 -75 68 -160 140 -190 160 -51 35 -59 37 -125 36 -170 -4 -503 -98 -756 -214 -137 -62 -181 -85 -415 -215 -166 -93 -380 -200 -452 -226 -45 -17 -58 -28 -69 -56 -18 -43 -3 -81 40 -102 26 -12 36 -11 85 4 70 22 273 123 541 270 323 176 488 249 700 310 134 38 311 70 345 61 13 -3 74 -52 137 -109 220 -200 314 -279 401 -338 74 -49 95 -59 132 -59 36 0 47 5 70 32 31 36 31 46 -4 208 -11 52 -36 219 -56 370 -41 322 -50 373 -116 665 -54 239 -82 340 -135 484 -111 300 -253 480 -460 584 l-52 26 25 68 c38 106 99 318 124 438 21 96 24 137 24 315 0 297 -31 504 -129 871 -82 306 -159 475 -288 632 -82 99 -165 165 -278 222 -213 107 -473 149 -671 110z m248 -156 c215 -24 400 -104 523 -228 139 -139 216 -296 301 -604 91 -332 132 -595 132 -852 1 -200 -35 -379 -131 -658 l-37 -109 -35 6 c-19 3 -87 11 -151 18 l-116 12 -6 110 c-16 276 -125 537 -324 778 -88 106 -167 177 -378 337 -99 75 -211 168 -250 206 -152 150 -247 343 -231 466 16 122 87 250 195 352 105 99 207 150 336 167 33 4 64 8 68 9 4 0 51 -4 104 -10z" fill="#9caf88"/>
<path d="M3800 5428 c-30 -16 -64 -47 -103 -98 -54 -69 -258 -373 -418 -622 -37 -57 -95 -141 -129 -187 l-62 -84 -347 7 c-370 7 -454 14 -482 43 -10 10 -39 56 -64 103 -152 278 -383 553 -564 671 -142 94 -326 127 -427 78 -53 -25 -87 -72 -133 -183 -74 -178 -218 -766 -224 -917 -2 -44 1 -54 26 -75 34 -29 76 -31 105 -4 24 23 24 21 51 181 48 273 171 722 224 814 23 40 23 40 83 38 113 -3 225 -66 355 -200 149 -153 257 -299 352 -474 89 -163 122 -194 236 -218 66 -14 617 -35 751 -29 172 8 156 -9 605 678 59 91 135 202 169 247 53 72 65 82 92 83 96 1 253 -103 371 -243 136 -163 405 -553 468 -678 49 -98 60 -109 106 -109 44 0 79 35 79 79 0 67 -165 336 -409 666 -179 242 -338 378 -506 431 -95 30 -148 30 -205 2z" fill="#9caf88"/>
<path d="M598 3907 c-81 -42 -272 -181 -292 -212 -9 -13 -16 -42 -16 -63 0 -58 44 -108 172 -197 62 -43 115 -79 116 -81 8 -6 -23 -86 -85 -217 -54 -113 -66 -148 -66 -190 -1 -66 27 -122 85 -169 81 -66 148 -91 354 -134 l131 -27 -5 -223 c-5 -232 4 -412 39 -784 32 -339 48 -391 129 -424 82 -33 233 -10 360 54 76 39 232 156 344 260 100 93 157 123 266 142 98 16 443 16 638 0 85 -6 299 -12 476 -12 l322 0 26 -27 c14 -16 78 -98 142 -185 178 -241 238 -289 368 -296 116 -7 209 49 447 268 146 134 171 172 150 222 -14 34 -37 48 -78 48 -25 0 -51 -20 -148 -111 -158 -150 -238 -215 -300 -245 -98 -48 -130 -25 -327 240 -97 130 -157 201 -187 221 l-44 30 -460 6 c-253 4 -516 12 -584 18 -91 9 -165 9 -280 1 -314 -21 -365 -39 -532 -192 -95 -87 -223 -187 -285 -224 -48 -28 -133 -59 -191 -69 -35 -5 -43 -4 -52 13 -6 11 -18 92 -26 179 -38 395 -46 538 -43 798 l3 263 28 26 c49 45 29 126 -35 141 -13 3 -102 21 -198 40 -96 20 -204 45 -238 56 -63 21 -132 70 -132 93 0 7 22 58 49 113 99 203 125 315 86 380 -9 16 -68 65 -131 108 -63 43 -114 80 -114 82 0 6 142 103 204 138 80 46 97 74 77 123 -13 30 -47 52 -81 52 -10 0 -47 -15 -82 -33z" fill="#9caf88"/>
<path d="M1294 3677 c-60 -29 -80 -67 -63 -117 6 -16 15 -30 20 -30 4 0 31 -23 59 -51 l52 -52 64 6 c116 9 199 69 197 143 -2 70 -74 114 -198 121 -70 4 -87 1 -131 -20z" fill="#9caf88"/>
<path d="M3965 3693 c-69 -6 -84 -12 -100 -43 -32 -62 -13 -152 45 -203 43 -40 86 -52 163 -45 104 9 157 55 157 135 0 63 -33 100 -115 132 -61 23 -98 29 -150 24z" fill="#9caf88"/>
<path d="M2433 3439 c-31 -9 -53 -31 -96 -98 -30 -47 -107 -97 -169 -111 -29 -6 -124 -10 -210 -9 -131 1 -162 -1 -183 -15 -30 -20 -41 -59 -27 -91 21 -45 51 -55 183 -61 161 -9 283 7 366 47 66 31 178 126 188 160 8 24 6 24 240 -51 228 -74 279 -83 445 -84 112 0 149 4 218 23 105 30 142 58 142 111 0 30 -6 43 -26 59 -34 27 -52 26 -147 -4 -62 -20 -98 -25 -180 -25 -141 0 -206 13 -397 75 -224 74 -293 88 -347 74z" fill="#9caf88"/>
</g>
</svg>