<svg version="1.0" xmlns="http://www.w3.org/2000/svg" width="736.000000pt" height="736.000000pt" viewBox="0 0 736.000000 736.000000" preserveAspectRatio="xMidYMid meet">

<g transform="translate(0.000000,736.000000) scale(0.100000,-0.100000)" fill="#9caf88" stroke="none">
<path d="M2800 6083 c-14 -2 -90 -17 -170 -33 -80 -16 -179 -34 -220 -40 -183 -28 -382 -98 -399 -142 -22 -54 -52 -168 -61 -232 -6 -37 -12 -72 -15 -76 -9 -15 -45 -380 -45 -458 0 -42 -5 -118 -10 -168 -5 -50 -12 -354 -15 -675 -5 -555 -6 -591 -29 -722 -32 -190 -24 -222 41 -163 91 83 134 119 137 115 12 -15 77 -173 86 -211 7 -27 17 -48 21 -48 18 0 94 54 146 103 29 28 55 48 57 46 2 -2 27 -51 56 -107 l53 -104 -9 -111 c-13 -163 -8 -471 10 -595 8 -59 18 -143 21 -187 8 -98 32 -268 46 -315 6 -19 24 -87 40 -150 31 -121 134 -372 176 -427 32 -44 62 -50 117 -24 84 41 139 149 155 303 11 100 31 314 37 388 2 24 11 65 19 90 8 25 21 77 29 115 l15 70 -7 -100 c-4 -55 -7 -179 -7 -275 0 -151 3 -187 23 -265 36 -137 108 -307 145 -342 68 -63 200 -92 266 -59 60 31 98 89 131 198 17 57 40 126 49 153 10 28 24 75 31 105 6 30 29 109 50 175 21 66 57 219 80 340 23 121 46 234 51 250 l8 30 -4 -30 c-3 -16 -9 -79 -15 -140 -6 -60 -17 -135 -25 -165 -8 -30 -17 -86 -20 -125 -3 -38 -12 -95 -20 -125 -36 -142 -47 -202 -38 -211 16 -16 40 0 58 40 9 21 28 45 41 52 14 7 33 27 44 44 10 17 38 48 60 68 40 35 41 39 35 80 -3 23 -11 57 -17 76 -8 26 -7 47 7 95 9 33 22 71 27 82 30 64 264 296 311 307 22 6 22 6 2 -9 -101 -74 -217 -196 -267 -282 -37 -65 -53 -163 -32 -202 25 -48 32 -65 38 -105 l7 -40 -74 -38 c-151 -77 -193 -139 -185 -272 5 -82 27 -132 89 -206 61 -73 91 -83 244 -83 111 0 139 3 190 23 159 61 234 95 257 116 14 13 44 33 68 45 53 27 134 102 168 154 13 22 49 105 79 185 45 120 56 164 64 246 9 88 14 108 51 175 22 41 62 105 89 141 97 132 136 267 124 434 -8 111 -18 159 -55 255 -32 82 -55 181 -72 306 -10 74 -9 88 12 155 12 41 46 126 75 190 60 129 95 242 95 307 0 54 -39 133 -80 162 -28 20 -34 21 -62 9 -104 -43 -303 -303 -376 -489 -44 -113 -55 -178 -48 -287 5 -84 13 -119 43 -195 20 -54 38 -118 40 -154 5 -57 4 -63 -23 -87 -36 -33 -54 -34 -92 -2 -17 14 -34 25 -40 25 -10 0 -53 54 -105 135 -17 28 -45 89 -61 136 -27 84 -28 89 -16 175 6 49 22 140 36 203 24 113 66 448 79 631 4 52 27 226 51 387 24 160 44 315 44 345 0 29 7 100 16 158 8 58 17 189 20 292 6 221 20 200 -154 228 -64 11 -133 24 -152 30 -56 17 -356 69 -465 80 -178 18 -364 58 -775 165 -194 50 -327 70 -400 58z m105 -88 c33 -4 100 -22 148 -41 53 -20 147 -44 235 -59 81 -14 206 -39 277 -55 153 -34 266 -54 390 -70 161 -20 207 -31 289 -69 45 -20 132 -52 194 -70 61 -19 112 -37 112 -41 0 -5 -10 -10 -22 -14 -24 -5 -73 -38 -302 -196 -76 -52 -179 -120 -229 -150 -87 -54 -115 -80 -84 -80 22 0 175 76 327 161 74 42 194 109 265 148 72 39 145 81 164 93 l34 22 -6 -126 c-4 -70 -12 -150 -17 -180 -6 -29 -17 -114 -26 -188 -9 -74 -17 -137 -19 -140 -3 -5 -33 -182 -59 -355 -9 -55 -23 -179 -31 -275 -8 -96 -19 -218 -25 -270 -5 -52 -12 -126 -16 -165 -3 -38 -15 -117 -25 -175 -11 -58 -24 -159 -29 -225 -11 -133 -29 -227 -42 -219 -4 3 -8 13 -8 23 0 17 -46 69 -54 60 -11 -12 -52 -103 -72 -159 -32 -93 -38 -91 -83 23 -6 15 -17 27 -25 27 -20 0 -144 -126 -189 -192 l-39 -56 -46 52 c-26 28 -54 62 -62 75 l-16 23 -64 -66 c-35 -36 -65 -64 -68 -62 -2 2 3 40 11 83 9 43 23 125 32 183 9 58 20 119 26 136 5 17 30 130 54 250 44 212 57 321 85 689 7 83 20 213 30 290 l18 140 -24 164 c-13 90 -25 166 -27 168 -6 5 -26 -182 -37 -332 -40 -581 -94 -1020 -150 -1229 -25 -96 -70 -363 -70 -420 0 -83 -38 -246 -57 -246 -5 0 -26 35 -47 78 -22 42 -45 81 -53 85 -7 4 -13 19 -13 32 0 14 -3 25 -6 25 -26 0 -150 -115 -201 -185 -12 -16 -24 -27 -27 -24 -4 3 -15 37 -26 75 -18 66 -73 187 -100 218 -9 12 -17 13 -32 5 -26 -14 -88 -69 -166 -147 -38 -39 -64 -58 -66 -50 -2 7 -7 45 -10 83 -3 40 -20 112 -39 167 l-34 97 -40 -20 c-22 -11 -48 -27 -59 -37 -25 -23 -143 -96 -147 -91 -2 2 -16 40 -31 84 -31 87 -107 215 -129 215 -8 0 -22 -10 -33 -21 -20 -23 -119 -89 -133 -89 -4 0 -16 -9 -27 -21 -18 -20 -18 -20 -32 18 -7 21 -18 61 -24 88 -13 60 -44 124 -64 132 -8 3 -36 -14 -68 -41 -30 -25 -57 -46 -59 -46 -7 0 2 119 14 190 5 30 14 237 19 460 9 414 23 802 40 1105 5 94 12 222 15 285 3 63 11 158 17 211 l12 95 140 17 c133 15 330 55 546 111 52 13 104 23 115 21 11 -2 47 -7 80 -10z" fill="#9caf88"/>
<path d="M2585 5929 c-16 -5 -48 -13 -69 -17 -22 -4 -41 -13 -44 -21 -3 -10 14 -12 88 -7 89 5 140 22 140 46 0 12 -75 11 -115 -1z" fill="#9caf88"/>
<path d="M2345 5870 c-7 -12 12 -12 40 0 18 8 17 9 -7 9 -15 1 -30 -3 -33 -9z" fill="#9caf88"/>
<path d="M2070 5832 c0 -14 35 -42 52 -42 8 0 23 -9 32 -19 10 -11 46 -31 79 -44 34 -14 124 -55 200 -91 76 -36 140 -66 143 -66 3 0 85 -31 183 -69 98 -38 194 -74 212 -79 19 -6 86 -29 151 -51 64 -22 208 -65 320 -95 111 -30 222 -62 245 -70 53 -19 213 -33 213 -19 0 6 -15 16 -32 23 -18 7 -47 24 -65 36 -43 32 -113 57 -283 99 -173 44 -192 49 -430 130 -195 66 -474 171 -528 199 -44 23 -228 82 -282 91 -25 4 -58 15 -75 25 -28 17 -111 50 -127 50 -5 0 -8 -4 -8 -8z" fill="#9caf88"/>
<path d="M3005 5803 c-22 -9 -62 -29 -88 -45 -26 -15 -52 -28 -58 -28 -6 0 -7 -4 -4 -10 6 -10 178 71 190 90 8 12 9 13 -40 -7z" fill="#9caf88"/>
<path d="M2964 5721 c-41 -19 -65 -41 -44 -41 13 0 110 48 110 55 0 10 -26 4 -66 -14z" fill="#9caf88"/>
<path d="M2071 5503 c-29 -201 -44 -385 -45 -575 -1 -115 2 -208 6 -208 4 0 8 22 8 50 0 27 4 69 10 92 35 160 57 409 52 586 -2 72 -8 132 -12 132 -4 0 -13 -35 -19 -77z" fill="#9caf88"/>
<path d="M4195 5521 c-22 -10 -80 -50 -128 -90 -48 -39 -93 -71 -99 -71 -6 0 -9 -3 -6 -6 12 -11 120 29 161 60 23 17 62 43 87 58 25 14 54 35 64 47 19 21 19 21 -10 21 -16 0 -47 -9 -69 -19z" fill="#9caf88"/>
<path d="M2530 5462 c0 -5 -26 -39 -58 -78 -94 -112 -217 -329 -292 -514 -12 -30 -27 -68 -34 -85 -24 -56 -44 -140 -51 -215 -8 -87 -9 -91 -25 -149 -25 -93 2 -308 59 -463 36 -100 145 -235 236 -294 16 -10 66 -48 111 -84 84 -67 178 -112 311 -151 214 -61 464 30 635 230 182 213 243 326 282 516 8 39 23 117 35 175 24 116 28 266 11 345 -11 52 -37 125 -76 210 -12 28 -32 73 -44 100 -12 28 -24 52 -25 53 -7 7 -81 -23 -120 -49 -63 -41 -217 -125 -245 -134 -14 -4 -46 -18 -72 -31 -88 -44 -159 -25 -323 87 -100 68 -108 78 -159 184 -25 52 -54 108 -64 123 -17 24 -51 127 -67 205 -5 24 -25 39 -25 19z m-75 -744 c50 -27 120 -105 137 -154 43 -121 30 -185 -57 -282 -114 -126 -242 -134 -338 -22 -27 32 -38 56 -46 104 -20 111 -16 135 35 211 55 85 68 100 119 137 34 26 46 29 83 24 23 -3 54 -11 67 -18z m708 -304 c32 -11 59 -30 82 -57 100 -120 105 -128 105 -171 0 -62 -56 -172 -114 -223 -73 -65 -120 -83 -208 -83 -97 0 -130 21 -176 110 -29 56 -33 72 -29 120 8 88 22 135 58 195 42 69 83 112 112 118 51 10 127 6 170 -9z" fill="#9caf88"/>
<path d="M2262 4545 c-49 -54 -54 -129 -15 -211 27 -55 97 -68 159 -28 54 36 92 171 63 226 -15 27 -69 48 -128 48 -43 0 -52 -4 -79 -35z" fill="#9caf88"/>
<path d="M2966 4257 c-25 -25 -46 -101 -46 -167 0 -83 74 -118 182 -86 71 20 100 51 106 116 9 93 -61 160 -167 160 -41 0 -57 -5 -75 -23z" fill="#9caf88"/>
<path d="M2700 5431 c0 -15 22 -28 102 -59 42 -16 106 -48 142 -70 60 -38 204 -97 214 -88 22 23 -71 106 -120 106 -16 0 -45 8 -66 19 -20 10 -73 30 -117 44 -44 14 -97 33 -117 41 -21 9 -38 12 -38 7z" fill="#9caf88"/>
<path d="M4281 5225 c-17 -20 -31 -43 -31 -53 0 -20 69 55 70 76 0 18 -5 15 -39 -23z" fill="#9caf88"/>
<path d="M3280 5210 c0 -21 27 -40 59 -40 29 0 26 12 -9 38 -36 27 -50 28 -50 2z" fill="#9caf88"/>
<path d="M4338 5213 c-30 -36 -30 -47 0 -19 18 17 32 31 32 33 0 9 -19 1 -32 -14z" fill="#9caf88"/>
<path d="M4580 5105 c0 -22 4 -34 10 -30 6 3 10 17 10 30 0 13 -4 27 -10 30 -6 4 -10 -8 -10 -30z" fill="#9caf88"/>
<path d="M4562 4930 c0 -19 2 -27 5 -17 2 9 2 25 0 35 -3 9 -5 1 -5 -18z" fill="#9caf88"/>
<path d="M4524 4743 c-3 -21 -13 -67 -21 -103 -63 -284 -72 -348 -77 -604 -5 -212 2 -223 29 -51 7 50 21 133 29 185 8 52 18 138 21 190 4 52 15 156 26 231 10 75 19 148 19 163 0 39 -18 31 -26 -11z" fill="#9caf88"/>
<path d="M3997 4763 c-4 -3 -7 -42 -7 -86 0 -43 -6 -102 -14 -130 -8 -29 -20 -131 -26 -227 -6 -96 -13 -212 -17 -257 -4 -58 -2 -83 5 -83 16 0 30 59 47 192 8 62 18 147 24 188 5 42 6 112 1 160 -4 47 -5 122 -2 168 5 79 3 90 -11 75z" fill="#9caf88"/>
<path d="M1980 4013 c0 -97 10 -143 24 -108 8 21 8 153 0 183 -14 49 -24 17 -24 -75z" fill="#9caf88"/>
<path d="M3921 3874 c0 -11 3 -14 6 -6 3 7 2 16 -1 19 -3 4 -6 -2 -5 -13z" fill="#9caf88"/>
<path d="M1977 3780 c-3 -11 -1 -23 4 -26 5 -3 9 6 9 20 0 31 -6 34 -13 6z" fill="#9caf88"/>
<path d="M4412 3735 c0 -16 2 -22 5 -12 2 9 2 23 0 30 -3 6 -5 -1 -5 -18z" fill="#9caf88"/>
<path d="M3628 3672 c-59 -123 -78 -176 -78 -214 0 -34 2 -39 15 -28 29 24 105 256 94 289 -2 6 -16 -15 -31 -47z" fill="#9caf88"/>
<path d="M3859 3598 c-6 -24 -15 -55 -19 -69 -4 -14 -4 -32 0 -39 5 -8 10 -1 15 21 4 19 11 39 15 44 11 14 18 85 8 85 -4 0 -12 -19 -19 -42z" fill="#9caf88"/>
<path d="M4386 3554 c-9 -24 -7 -74 3 -74 8 0 21 47 21 76 0 19 -16 18 -24 -2z" fill="#9caf88"/>
<path d="M2167 3543 c-4 -3 -7 -14 -7 -24 0 -22 31 -15 56 12 16 18 16 19 -13 19 -16 0 -33 -3 -36 -7z" fill="#9caf88"/>
<path d="M3822 3410 c0 -14 2 -19 5 -12 2 6 2 18 0 25 -3 6 -5 1 -5 -13z" fill="#9caf88"/>
<path d="M2490 3378 c0 -19 18 -43 25 -36 9 9 -4 48 -16 48 -5 0 -9 -6 -9 -12z" fill="#9caf88"/>
<path d="M3797 3286 c-5 -21 -6 -40 -3 -43 9 -10 18 24 14 54 -3 26 -4 25 -11 -11z" fill="#9caf88"/>
<path d="M3517 3303 c-4 -3 -7 -11 -7 -17 0 -6 5 -5 12 2 6 6 9 14 7 17 -3 3 -9 2 -12 -2z" fill="#9caf88"/>
<path d="M2955 3215 c-28 -27 -32 -45 -11 -45 13 0 56 49 56 64 0 14 -22 4 -45 -19z" fill="#9caf88"/>
</g>
</svg>