<?xml version="1.0" encoding="UTF-8" standalone="no" ?>
<!DOCTYPE svg PUBLIC "-//W3C//DTD SVG 1.1//EN" "http://www.w3.org/Graphics/SVG/1.1/DTD/svg11.dtd">
<svg xmlns="http://www.w3.org/2000/svg" xmlns:xlink="http://www.w3.org/1999/xlink" version="1.1" width="1080" height="1080" viewBox="0 0 1080 1080" xml:space="preserve">
<desc>Created with Fabric.js 5.2.4</desc>
<defs>
</defs>
<rect x="0" y="0" width="100%" height="100%" fill="transparent"></rect>
<g transform="matrix(1 0 0 1 540 540)" id="8b24473f-1264-444e-bd11-a2f1b616f079"  >
<rect style="stroke: none; stroke-width: 1; stroke-dasharray: none; stroke-linecap: butt; stroke-dashoffset: 0; stroke-linejoin: miter; stroke-miterlimit: 4; fill: rgb(255,255,255); fill-rule: nonzero; opacity: 1; visibility: hidden;" vector-effect="non-scaling-stroke"  x="-540" y="-540" rx="0" ry="0" width="1080" height="1080" />
</g>
<g transform="matrix(1 0 0 1 540 540)" id="94f7c34d-b3e0-4514-9917-eae54281e1ac"  >
</g>
<g transform="matrix(1.62 0 0 1.62 -952.61 626.98)"  >
<g style="" vector-effect="non-scaling-stroke"   >
		<g transform="matrix(0.13 0 0 -0.13 0 0)"  >
<path style="stroke: none; stroke-width: 1; stroke-dasharray: none; stroke-linecap: butt; stroke-dashoffset: 0; stroke-linejoin: miter; stroke-miterlimit: 4; fill: rgb(156,175,136); fill-rule: nonzero; opacity: 1;" vector-effect="non-scaling-stroke"  transform=" translate(-3568.88, -3678.32)" d="M 2800 6083 C 2786 6081 2710 6066 2630 6050 C 2550 6034 2451 6016 2410 6010 C 2227 5982 2028 5912 2011 5868 C 1989 5814 1959 5700 1950 5636 C 1944 5599 1938 5564 1935 5560 C 1926 5545 1890 5180 1890 5102 C 1890 5060 1885 4984 1880 4934 C 1875 4884 1868 4580 1865 4259 C 1860 3704 1859 3668 1836 3537 C 1804 3347 1812 3315 1877 3374 C 1968 3457 2011 3493 2014 3489 C 2026 3474 2091 3316 2100 3278 C 2107 3251 2117 3230 2121 3230 C 2139 3230 2215 3284 2267 3333 C 2296 3361 2322 3381 2324 3379 C 2326 3377 2351 3328 2380 3272 L 2433 3168 L 2424 3057 C 2411 2894 2416 2586 2434 2462 C 2442 2403 2452 2319 2455 2275 C 2463 2177 2487 2007 2501 1960 C 2507 1941 2525 1873 2541 1810 C 2572 1689 2675 1438 2717 1383 C 2749 1339 2779 1333 2834 1359 C 2918 1400 2973 1508 2989 1662 C 3000 1762 3020 1976 3026 2050 C 3028 2074 3037 2115 3045 2140 C 3053 2165 3066 2217 3074 2255 L 3089 2325 L 3082 2225 C 3078 2170 3075 2046 3075 1950 C 3075 1799 3078 1763 3098 1685 C 3134 1548 3206 1378 3243 1343 C 3311 1280 3443 1251 3509 1284 C 3569 1315 3607 1373 3640 1482 C 3657 1539 3680 1608 3689 1635 C 3699 1663 3713 1710 3720 1740 C 3726 1770 3749 1849 3770 1915 C 3791 1981 3827 2134 3850 2255 C 3873 2376 3896 2489 3901 2505 L 3909 2535 L 3905 2505 C 3902 2489 3896 2426 3890 2365 C 3884 2305 3873 2230 3865 2200 C 3857 2170 3848 2114 3845 2075 C 3842 2037 3833 1980 3825 1950 C 3789 1808 3778 1748 3787 1739 C 3803 1723 3827 1739 3845 1779 C 3854 1800 3873 1824 3886 1831 C 3900 1838 3919 1858 3930 1875 C 3940 1892 3968 1923 3990 1943 C 4030 1978 4031 1982 4025 2023 C 4022 2046 4014 2080 4008 2099 C 4000 2125 4001 2146 4015 2194 C 4024 2227 4037 2265 4042 2276 C 4072 2340 4306 2572 4353 2583 C 4375 2589 4375 2589 4355 2574 C 4254 2500 4138 2378 4088 2292 C 4051 2227 4035 2129 4056 2090 C 4081 2042 4088 2025 4094 1985 L 4101 1945 L 4027 1907 C 3876 1830 3834 1768 3842 1635 C 3847 1553 3869 1503 3931 1429 C 3992 1356 4022 1346 4175 1346 C 4286 1346 4314 1349 4365 1369 C 4524 1430 4599 1464 4622 1485 C 4636 1498 4666 1518 4690 1530 C 4743 1557 4824 1632 4858 1684 C 4871 1706 4907 1789 4937 1869 C 4982 1989 4993 2033 5001 2115 C 5010 2203 5015 2223 5052 2290 C 5074 2331 5114 2395 5141 2431 C 5238 2563 5277 2698 5265 2865 C 5257 2976 5247 3024 5210 3120 C 5178 3202 5155 3301 5138 3426 C 5128 3500 5129 3514 5150 3581 C 5162 3622 5196 3707 5225 3771 C 5285 3900 5320 4013 5320 4078 C 5320 4132 5281 4211 5240 4240 C 5212 4260 5206 4261 5178 4249 C 5074 4206 4875 3946 4802 3760 C 4758 3647 4747 3582 4754 3473 C 4759 3389 4767 3354 4797 3278 C 4817 3224 4835 3160 4837 3124 C 4842 3067 4841 3061 4814 3037 C 4778 3004 4760 3003 4722 3035 C 4705 3049 4688 3060 4682 3060 C 4672 3060 4629 3114 4577 3195 C 4560 3223 4532 3284 4516 3331 C 4489 3415 4488 3420 4500 3506 C 4506 3555 4522 3646 4536 3709 C 4560 3822 4602 4157 4615 4340 C 4619 4392 4642 4566 4666 4727 C 4690 4887 4710 5042 4710 5072 C 4710 5101 4717 5172 4726 5230 C 4734 5288 4743 5419 4746 5522 C 4752 5743 4766 5722 4592 5750 C 4528 5761 4459 5774 4440 5780 C 4384 5797 4084 5849 3975 5860 C 3797 5878 3611 5918 3200 6025 C 3006 6075 2873 6095 2800 6083 z M 2905 5995 C 2938 5991 3005 5973 3053 5954 C 3106 5934 3200 5910 3288 5895 C 3369 5881 3494 5856 3565 5840 C 3718 5806 3831 5786 3955 5770 C 4116 5750 4162 5739 4244 5701 C 4289 5681 4376 5649 4438 5631 C 4499 5612 4550 5594 4550 5590 C 4550 5585 4540 5580 4528 5576 C 4504 5571 4455 5538 4226 5380 C 4150 5328 4047 5260 3997 5230 C 3910 5176 3882 5150 3913 5150 C 3935 5150 4088 5226 4240 5311 C 4314 5353 4434 5420 4505 5459 C 4577 5498 4650 5540 4669 5552 L 4703 5574 L 4697 5448 C 4693 5378 4685 5298 4680 5268 C 4674 5239 4663 5154 4654 5080 C 4645 5006 4637 4943 4635 4940 C 4632 4935 4602 4758 4576 4585 C 4567 4530 4553 4406 4545 4310 C 4537 4214 4526 4092 4520 4040 C 4515 3988 4508 3914 4504 3875 C 4501 3837 4489 3758 4479 3700 C 4468 3642 4455 3541 4450 3475 C 4439 3342 4421 3248 4408 3256 C 4404 3259 4400 3269 4400 3279 C 4400 3296 4354 3348 4346 3339 C 4335 3327 4294 3236 4274 3180 C 4242 3087 4236 3089 4191 3203 C 4185 3218 4174 3230 4166 3230 C 4146 3230 4022 3104 3977 3038 L 3938 2982 L 3892 3034 C 3866 3062 3838 3096 3830 3109 L 3814 3132 L 3750 3066 C 3715 3030 3685 3002 3682 3004 C 3680 3006 3685 3044 3693 3087 C 3702 3130 3716 3212 3725 3270 C 3734 3328 3745 3389 3751 3406 C 3756 3423 3781 3536 3805 3656 C 3849 3868 3862 3977 3890 4345 C 3897 4428 3910 4558 3920 4635 L 3938 4775 L 3914 4939 C 3901 5029 3889 5105 3887 5107 C 3881 5112 3861 4925 3850 4775 C 3810 4194 3756 3755 3700 3546 C 3675 3450 3630 3183 3630 3126 C 3630 3043 3592 2880 3573 2880 C 3568 2880 3547 2915 3526 2958 C 3504 3000 3481 3039 3473 3043 C 3466 3047 3460 3062 3460 3075 C 3460 3089 3457 3100 3454 3100 C 3428 3100 3304 2985 3253 2915 C 3241 2899 3229 2888 3226 2891 C 3222 2894 3211 2928 3200 2966 C 3182 3032 3127 3153 3100 3184 C 3091 3196 3083 3197 3068 3189 C 3042 3175 2980 3120 2902 3042 C 2864 3003 2838 2984 2836 2992 C 2834 2999 2829 3037 2826 3075 C 2823 3115 2806 3187 2787 3242 L 2753 3339 L 2713 3319 C 2691 3308 2665 3292 2654 3282 C 2629 3259 2511 3186 2507 3191 C 2505 3193 2491 3231 2476 3275 C 2445 3362 2369 3490 2347 3490 C 2339 3490 2325 3480 2314 3469 C 2294 3446 2195 3380 2181 3380 C 2177 3380 2165 3371 2154 3359 C 2136 3339 2136 3339 2122 3377 C 2115 3398 2104 3438 2098 3465 C 2085 3525 2054 3589 2034 3597 C 2026 3600 1998 3583 1966 3556 C 1936 3531 1909 3510 1907 3510 C 1900 3510 1909 3629 1921 3700 C 1926 3730 1935 3937 1940 4160 C 1949 4574 1963 4962 1980 5265 C 1985 5359 1992 5487 1995 5550 C 1998 5613 2006 5708 2012 5761 L 2024 5856 L 2164 5873 C 2297 5888 2494 5928 2710 5984 C 2762 5997 2814 6007 2825 6005 C 2836 6003 2872 5998 2905 5995 z" stroke-linecap="round" />
</g>
		<g transform="matrix(0.13 0 0 -0.13 -131.07 -297.55)"  >
<path style="stroke: none; stroke-width: 1; stroke-dasharray: none; stroke-linecap: butt; stroke-dashoffset: 0; stroke-linejoin: miter; stroke-miterlimit: 4; fill: rgb(156,175,136); fill-rule: nonzero; opacity: 1;" vector-effect="non-scaling-stroke"  transform=" translate(-2585.84, -5909.94)" d="M 2585 5929 C 2569 5924 2537 5916 2516 5912 C 2494 5908 2475 5899 2472 5891 C 2469 5881 2486 5879 2560 5884 C 2649 5889 2700 5906 2700 5930 C 2700 5942 2625 5941 2585 5929 z" stroke-linecap="round" />
</g>
		<g transform="matrix(0.13 0 0 -0.13 -159.79 -292.23)"  >
<path style="stroke: none; stroke-width: 1; stroke-dasharray: none; stroke-linecap: butt; stroke-dashoffset: 0; stroke-linejoin: miter; stroke-miterlimit: 4; fill: rgb(156,175,136); fill-rule: nonzero; opacity: 1;" vector-effect="non-scaling-stroke"  transform=" translate(-2370.47, -5870.08)" d="M 2345 5870 C 2338 5858 2357 5858 2385 5870 C 2403 5878 2402 5879 2378 5879 C 2363 5880 2348 5876 2345 5870 z" stroke-linecap="round" />
</g>
		<g transform="matrix(0.13 0 0 -0.13 -77.85 -244.31)"  >
<path style="stroke: none; stroke-width: 1; stroke-dasharray: none; stroke-linecap: butt; stroke-dashoffset: 0; stroke-linejoin: miter; stroke-miterlimit: 4; fill: rgb(156,175,136); fill-rule: nonzero; opacity: 1;" vector-effect="non-scaling-stroke"  transform=" translate(-2985, -5510.66)" d="M 2070 5832 C 2070 5818 2105 5790 2122 5790 C 2130 5790 2145 5781 2154 5771 C 2164 5760 2200 5740 2233 5727 C 2267 5713 2357 5672 2433 5636 C 2509 5600 2573 5570 2576 5570 C 2579 5570 2661 5539 2759 5501 C 2857 5463 2953 5427 2971 5422 C 2990 5416 3057 5393 3122 5371 C 3186 5349 3330 5306 3442 5276 C 3553 5246 3664 5214 3687 5206 C 3740 5187 3900 5173 3900 5187 C 3900 5193 3885 5203 3868 5210 C 3850 5217 3821 5234 3803 5246 C 3760 5278 3690 5303 3520 5345 C 3347 5389 3328 5394 3090 5475 C 2895 5541 2616 5646 2562 5674 C 2518 5697 2334 5756 2280 5765 C 2255 5769 2222 5780 2205 5790 C 2177 5807 2094 5840 2078 5840 C 2073 5840 2070 5836 2070 5832 z" stroke-linecap="round" />
</g>
		<g transform="matrix(0.13 0 0 -0.13 -82.35 -278.74)"  >
<path style="stroke: none; stroke-width: 1; stroke-dasharray: none; stroke-linecap: butt; stroke-dashoffset: 0; stroke-linejoin: miter; stroke-miterlimit: 4; fill: rgb(156,175,136); fill-rule: nonzero; opacity: 1;" vector-effect="non-scaling-stroke"  transform=" translate(-2951.26, -5768.88)" d="M 3005 5803 C 2983 5794 2943 5774 2917 5758 C 2891 5743 2865 5730 2859 5730 C 2853 5730 2852 5726 2855 5720 C 2861 5710 3033 5791 3045 5810 C 3053 5822 3054 5823 3005 5803 z" stroke-linecap="round" />
</g>
		<g transform="matrix(0.13 0 0 -0.13 -79.7 -270.88)"  >
<path style="stroke: none; stroke-width: 1; stroke-dasharray: none; stroke-linecap: butt; stroke-dashoffset: 0; stroke-linejoin: miter; stroke-miterlimit: 4; fill: rgb(156,175,136); fill-rule: nonzero; opacity: 1;" vector-effect="non-scaling-stroke"  transform=" translate(-2971.12, -5709.91)" d="M 2964 5721 C 2923 5702 2899 5680 2920 5680 C 2933 5680 3030 5728 3030 5735 C 3030 5745 3004 5739 2964 5721 z" stroke-linecap="round" />
</g>
		<g transform="matrix(0.13 0 0 -0.13 -200.62 -196.22)"  >
<path style="stroke: none; stroke-width: 1; stroke-dasharray: none; stroke-linecap: butt; stroke-dashoffset: 0; stroke-linejoin: miter; stroke-miterlimit: 4; fill: rgb(156,175,136); fill-rule: nonzero; opacity: 1;" vector-effect="non-scaling-stroke"  transform=" translate(-2064.26, -5150)" d="M 2071 5503 C 2042 5302 2027 5118 2026 4928 C 2025 4813 2028 4720 2032 4720 C 2036 4720 2040 4742 2040 4770 C 2040 4797 2044 4839 2050 4862 C 2085 5022 2107 5271 2102 5448 C 2100 5520 2094 5580 2090 5580 C 2086 5580 2077 5545 2071 5503 z" stroke-linecap="round" />
</g>
		<g transform="matrix(0.13 0 0 -0.13 74.02 -235.7)"  >
<path style="stroke: none; stroke-width: 1; stroke-dasharray: none; stroke-linecap: butt; stroke-dashoffset: 0; stroke-linejoin: miter; stroke-miterlimit: 4; fill: rgb(156,175,136); fill-rule: nonzero; opacity: 1;" vector-effect="non-scaling-stroke"  transform=" translate(-4124.01, -5446.07)" d="M 4195 5521 C 4173 5511 4115 5471 4067 5431 C 4019 5392 3974 5360 3968 5360 C 3962 5360 3959 5357 3962 5354 C 3974 5343 4082 5383 4123 5414 C 4146 5431 4185 5457 4210 5472 C 4235 5486 4264 5507 4274 5519 C 4293 5540 4293 5540 4264 5540 C 4248 5540 4217 5531 4195 5521 z" stroke-linecap="round" />
</g>
		<g transform="matrix(0.13 0 0 -0.13 -87.78 -101.66)"  >
<path style="stroke: none; stroke-width: 1; stroke-dasharray: none; stroke-linecap: butt; stroke-dashoffset: 0; stroke-linejoin: miter; stroke-miterlimit: 4; fill: rgb(156,175,136); fill-rule: nonzero; opacity: 1;" vector-effect="non-scaling-stroke"  transform=" translate(-2910.52, -4440.79)" d="M 2530 5462 C 2530 5457 2504 5423 2472 5384 C 2378 5272 2255 5055 2180 4870 C 2168 4840 2153 4802 2146 4785 C 2122 4729 2102 4645 2095 4570 C 2087 4483 2086 4479 2070 4421 C 2045 4328 2072 4113 2129 3958 C 2165 3858 2274 3723 2365 3664 C 2381 3654 2431 3616 2476 3580 C 2560 3513 2654 3468 2787 3429 C 3001 3368 3251 3459 3422 3659 C 3604 3872 3665 3985 3704 4175 C 3712 4214 3727 4292 3739 4350 C 3763 4466 3767 4616 3750 4695 C 3739 4747 3713 4820 3674 4905 C 3662 4933 3642 4978 3630 5005 C 3618 5033 3606 5057 3605 5058 C 3598 5065 3524 5035 3485 5009 C 3422 4968 3268 4884 3240 4875 C 3226 4871 3194 4857 3168 4844 C 3080 4800 3009 4819 2845 4931 C 2745 4999 2737 5009 2686 5115 C 2661 5167 2632 5223 2622 5238 C 2605 5262 2571 5365 2555 5443 C 2550 5467 2530 5482 2530 5462 z M 2455 4718 C 2505 4691 2575 4613 2592 4564 C 2635 4443 2622 4379 2535 4282 C 2421 4156 2293 4148 2197 4260 C 2170 4292 2159 4316 2151 4364 C 2131 4475 2135 4499 2186 4575 C 2241 4660 2254 4675 2305 4712 C 2339 4738 2351 4741 2388 4736 C 2411 4733 2442 4725 2455 4718 z M 3163 4414 C 3195 4403 3222 4384 3245 4357 C 3345 4237 3350 4229 3350 4186 C 3350 4124 3294 4014 3236 3963 C 3163 3898 3116 3880 3028 3880 C 2931 3880 2898 3901 2852 3990 C 2823 4046 2819 4062 2823 4110 C 2831 4198 2845 4245 2881 4305 C 2923 4374 2964 4417 2993 4423 C 3044 4433 3120 4429 3163 4414 z" stroke-linecap="round" />
</g>
		<g transform="matrix(0.13 0 0 -0.13 -162.51 -100.41)"  >
<path style="stroke: none; stroke-width: 1; stroke-dasharray: none; stroke-linecap: butt; stroke-dashoffset: 0; stroke-linejoin: miter; stroke-miterlimit: 4; fill: rgb(156,175,136); fill-rule: nonzero; opacity: 1;" vector-effect="non-scaling-stroke"  transform=" translate(-2350.04, -4431.36)" d="M 2262 4545 C 2213 4491 2208 4416 2247 4334 C 2274 4279 2344 4266 2406 4306 C 2460 4342 2498 4477 2469 4532 C 2454 4559 2400 4580 2341 4580 C 2298 4580 2289 4576 2262 4545 z" stroke-linecap="round" />
</g>
		<g transform="matrix(0.13 0 0 -0.13 -67.27 -61.04)"  >
<path style="stroke: none; stroke-width: 1; stroke-dasharray: none; stroke-linecap: butt; stroke-dashoffset: 0; stroke-linejoin: miter; stroke-miterlimit: 4; fill: rgb(156,175,136); fill-rule: nonzero; opacity: 1;" vector-effect="non-scaling-stroke"  transform=" translate(-3064.39, -4136.13)" d="M 2966 4257 C 2941 4232 2920 4156 2920 4090 C 2920 4007 2994 3972 3102 4004 C 3173 4024 3202 4055 3208 4120 C 3217 4213 3147 4280 3041 4280 C 3000 4280 2984 4275 2966 4257 z" stroke-linecap="round" />
</g>
		<g transform="matrix(0.13 0 0 -0.13 -85.1 -219.32)"  >
<path style="stroke: none; stroke-width: 1; stroke-dasharray: none; stroke-linecap: butt; stroke-dashoffset: 0; stroke-linejoin: miter; stroke-miterlimit: 4; fill: rgb(156,175,136); fill-rule: nonzero; opacity: 1;" vector-effect="non-scaling-stroke"  transform=" translate(-2930.66, -5323.24)" d="M 2700 5431 C 2700 5416 2722 5403 2802 5372 C 2844 5356 2908 5324 2944 5302 C 3004 5264 3148 5205 3158 5214 C 3180 5237 3087 5320 3038 5320 C 3022 5320 2993 5328 2972 5339 C 2952 5349 2899 5369 2855 5383 C 2811 5397 2758 5416 2738 5424 C 2717 5433 2700 5436 2700 5431 z" stroke-linecap="round" />
</g>
		<g transform="matrix(0.13 0 0 -0.13 95.48 -204.71)"  >
<path style="stroke: none; stroke-width: 1; stroke-dasharray: none; stroke-linecap: butt; stroke-dashoffset: 0; stroke-linejoin: miter; stroke-miterlimit: 4; fill: rgb(156,175,136); fill-rule: nonzero; opacity: 1;" vector-effect="non-scaling-stroke"  transform=" translate(-4285, -5213.65)" d="M 4281 5225 C 4264 5205 4250 5182 4250 5172 C 4250 5152 4319 5227 4320 5248 C 4320 5266 4315 5263 4281 5225 z" stroke-linecap="round" />
</g>
		<g transform="matrix(0.13 0 0 -0.13 -33.27 -202.82)"  >
<path style="stroke: none; stroke-width: 1; stroke-dasharray: none; stroke-linecap: butt; stroke-dashoffset: 0; stroke-linejoin: miter; stroke-miterlimit: 4; fill: rgb(156,175,136); fill-rule: nonzero; opacity: 1;" vector-effect="non-scaling-stroke"  transform=" translate(-3319.36, -5199.45)" d="M 3280 5210 C 3280 5189 3307 5170 3339 5170 C 3368 5170 3365 5182 3330 5208 C 3294 5235 3280 5236 3280 5210 z" stroke-linecap="round" />
</g>
		<g transform="matrix(0.13 0 0 -0.13 103.18 -203.49)"  >
<path style="stroke: none; stroke-width: 1; stroke-dasharray: none; stroke-linecap: butt; stroke-dashoffset: 0; stroke-linejoin: miter; stroke-miterlimit: 4; fill: rgb(156,175,136); fill-rule: nonzero; opacity: 1;" vector-effect="non-scaling-stroke"  transform=" translate(-4342.75, -5204.49)" d="M 4338 5213 C 4308 5177 4308 5166 4338 5194 C 4356 5211 4370 5225 4370 5227 C 4370 5236 4351 5228 4338 5213 z" stroke-linecap="round" />
</g>
		<g transform="matrix(0.13 0 0 -0.13 136.15 -190.22)"  >
<path style="stroke: none; stroke-width: 1; stroke-dasharray: none; stroke-linecap: butt; stroke-dashoffset: 0; stroke-linejoin: miter; stroke-miterlimit: 4; fill: rgb(156,175,136); fill-rule: nonzero; opacity: 1;" vector-effect="non-scaling-stroke"  transform=" translate(-4590, -5105)" d="M 4580 5105 C 4580 5083 4584 5071 4590 5075 C 4596 5078 4600 5092 4600 5105 C 4600 5118 4596 5132 4590 5135 C 4584 5139 4580 5127 4580 5105 z" stroke-linecap="round" />
</g>
		<g transform="matrix(0.13 0 0 -0.13 132.85 -166.92)"  >
<path style="stroke: none; stroke-width: 1; stroke-dasharray: none; stroke-linecap: butt; stroke-dashoffset: 0; stroke-linejoin: miter; stroke-miterlimit: 4; fill: rgb(156,175,136); fill-rule: nonzero; opacity: 1;" vector-effect="non-scaling-stroke"  transform=" translate(-4565.25, -4930.18)" d="M 4562 4930 C 4562 4911 4564 4903 4567 4913 C 4569 4922 4569 4938 4567 4948 C 4564 4957 4562 4949 4562 4930 z" stroke-linecap="round" />
</g>
		<g transform="matrix(0.13 0 0 -0.13 122.45 -85.88)"  >
<path style="stroke: none; stroke-width: 1; stroke-dasharray: none; stroke-linecap: butt; stroke-dashoffset: 0; stroke-linejoin: miter; stroke-miterlimit: 4; fill: rgb(156,175,136); fill-rule: nonzero; opacity: 1;" vector-effect="non-scaling-stroke"  transform=" translate(-4487.25, -4322.43)" d="M 4524 4743 C 4521 4722 4511 4676 4503 4640 C 4440 4356 4431 4292 4426 4036 C 4421 3824 4428 3813 4455 3985 C 4462 4035 4476 4118 4484 4170 C 4492 4222 4502 4308 4505 4360 C 4509 4412 4520 4516 4531 4591 C 4541 4666 4550 4739 4550 4754 C 4550 4793 4532 4785 4524 4743 z" stroke-linecap="round" />
</g>
		<g transform="matrix(0.13 0 0 -0.13 53.77 -92.81)"  >
<path style="stroke: none; stroke-width: 1; stroke-dasharray: none; stroke-linecap: butt; stroke-dashoffset: 0; stroke-linejoin: miter; stroke-miterlimit: 4; fill: rgb(156,175,136); fill-rule: nonzero; opacity: 1;" vector-effect="non-scaling-stroke"  transform=" translate(-3972.12, -4374.36)" d="M 3997 4763 C 3993 4760 3990 4721 3990 4677 C 3990 4634 3984 4575 3976 4547 C 3968 4518 3956 4416 3950 4320 C 3944 4224 3937 4108 3933 4063 C 3929 4005 3931 3980 3938 3980 C 3954 3980 3968 4039 3985 4172 C 3993 4234 4003 4319 4009 4360 C 4014 4402 4015 4472 4010 4520 C 4006 4567 4005 4642 4008 4688 C 4013 4767 4011 4778 3997 4763 z" stroke-linecap="round" />
</g>
		<g transform="matrix(0.13 0 0 -0.13 -209.85 -43.17)"  >
<path style="stroke: none; stroke-width: 1; stroke-dasharray: none; stroke-linecap: butt; stroke-dashoffset: 0; stroke-linejoin: miter; stroke-miterlimit: 4; fill: rgb(156,175,136); fill-rule: nonzero; opacity: 1;" vector-effect="non-scaling-stroke"  transform=" translate(-1995, -4002.09)" d="M 1980 4013 C 1980 3916 1990 3870 2004 3905 C 2012 3926 2012 4058 2004 4088 C 1990 4137 1980 4105 1980 4013 z" stroke-linecap="round" />
</g>
		<g transform="matrix(0.13 0 0 -0.13 47.46 -26.34)"  >
<path style="stroke: none; stroke-width: 1; stroke-dasharray: none; stroke-linecap: butt; stroke-dashoffset: 0; stroke-linejoin: miter; stroke-miterlimit: 4; fill: rgb(156,175,136); fill-rule: nonzero; opacity: 1;" vector-effect="non-scaling-stroke"  transform=" translate(-3924.81, -3875.86)" d="M 3921 3874 C 3921 3863 3924 3860 3927 3868 C 3930 3875 3929 3884 3926 3887 C 3923 3891 3920 3885 3921 3874 z" stroke-linecap="round" />
</g>
		<g transform="matrix(0.13 0 0 -0.13 -211.48 -13.07)"  >
<path style="stroke: none; stroke-width: 1; stroke-dasharray: none; stroke-linecap: butt; stroke-dashoffset: 0; stroke-linejoin: miter; stroke-miterlimit: 4; fill: rgb(156,175,136); fill-rule: nonzero; opacity: 1;" vector-effect="non-scaling-stroke"  transform=" translate(-1982.8, -3776.34)" d="M 1977 3780 C 1974 3769 1976 3757 1981 3754 C 1986 3751 1990 3760 1990 3774 C 1990 3805 1984 3808 1977 3780 z" stroke-linecap="round" />
</g>
		<g transform="matrix(0.13 0 0 -0.13 112.85 -7.77)"  >
<path style="stroke: none; stroke-width: 1; stroke-dasharray: none; stroke-linecap: butt; stroke-dashoffset: 0; stroke-linejoin: miter; stroke-miterlimit: 4; fill: rgb(156,175,136); fill-rule: nonzero; opacity: 1;" vector-effect="non-scaling-stroke"  transform=" translate(-4415.25, -3736.61)" d="M 4412 3735 C 4412 3719 4414 3713 4417 3723 C 4419 3732 4419 3746 4417 3753 C 4414 3759 4412 3752 4412 3735 z" stroke-linecap="round" />
</g>
		<g transform="matrix(0.13 0 0 -0.13 4.82 14.12)"  >
<path style="stroke: none; stroke-width: 1; stroke-dasharray: none; stroke-linecap: butt; stroke-dashoffset: 0; stroke-linejoin: miter; stroke-miterlimit: 4; fill: rgb(156,175,136); fill-rule: nonzero; opacity: 1;" vector-effect="non-scaling-stroke"  transform=" translate(-3605.04, -3572.4)" d="M 3628 3672 C 3569 3549 3550 3496 3550 3458 C 3550 3424 3552 3419 3565 3430 C 3594 3454 3670 3686 3659 3719 C 3657 3725 3643 3704 3628 3672 z" stroke-linecap="round" />
</g>
		<g transform="matrix(0.13 0 0 -0.13 38.8 15.32)"  >
<path style="stroke: none; stroke-width: 1; stroke-dasharray: none; stroke-linecap: butt; stroke-dashoffset: 0; stroke-linejoin: miter; stroke-miterlimit: 4; fill: rgb(156,175,136); fill-rule: nonzero; opacity: 1;" vector-effect="non-scaling-stroke"  transform=" translate(-3859.91, -3563.4)" d="M 3859 3598 C 3853 3574 3844 3543 3840 3529 C 3836 3515 3836 3497 3840 3490 C 3845 3482 3850 3489 3855 3511 C 3859 3530 3866 3550 3870 3555 C 3881 3569 3888 3640 3878 3640 C 3874 3640 3866 3621 3859 3598 z" stroke-linecap="round" />
</g>
		<g transform="matrix(0.13 0 0 -0.13 110.17 20.47)"  >
<path style="stroke: none; stroke-width: 1; stroke-dasharray: none; stroke-linecap: butt; stroke-dashoffset: 0; stroke-linejoin: miter; stroke-miterlimit: 4; fill: rgb(156,175,136); fill-rule: nonzero; opacity: 1;" vector-effect="non-scaling-stroke"  transform=" translate(-4395.13, -3524.82)" d="M 4386 3554 C 4377 3530 4379 3480 4389 3480 C 4397 3480 4410 3527 4410 3556 C 4410 3575 4394 3574 4386 3554 z" stroke-linecap="round" />
</g>
		<g transform="matrix(0.13 0 0 -0.13 -183.4 20.05)"  >
<path style="stroke: none; stroke-width: 1; stroke-dasharray: none; stroke-linecap: butt; stroke-dashoffset: 0; stroke-linejoin: miter; stroke-miterlimit: 4; fill: rgb(156,175,136); fill-rule: nonzero; opacity: 1;" vector-effect="non-scaling-stroke"  transform=" translate(-2193.37, -3527.97)" d="M 2167 3543 C 2163 3540 2160 3529 2160 3519 C 2160 3497 2191 3504 2216 3531 C 2232 3549 2232 3550 2203 3550 C 2187 3550 2170 3547 2167 3543 z" stroke-linecap="round" />
</g>
		<g transform="matrix(0.13 0 0 -0.13 34.18 35.75)"  >
<path style="stroke: none; stroke-width: 1; stroke-dasharray: none; stroke-linecap: butt; stroke-dashoffset: 0; stroke-linejoin: miter; stroke-miterlimit: 4; fill: rgb(156,175,136); fill-rule: nonzero; opacity: 1;" vector-effect="non-scaling-stroke"  transform=" translate(-3825.25, -3410.18)" d="M 3822 3410 C 3822 3396 3824 3391 3827 3398 C 3829 3404 3829 3416 3827 3423 C 3824 3429 3822 3424 3822 3410 z" stroke-linecap="round" />
</g>
		<g transform="matrix(0.13 0 0 -0.13 -141.98 41.73)"  >
<path style="stroke: none; stroke-width: 1; stroke-dasharray: none; stroke-linecap: butt; stroke-dashoffset: 0; stroke-linejoin: miter; stroke-miterlimit: 4; fill: rgb(156,175,136); fill-rule: nonzero; opacity: 1;" vector-effect="non-scaling-stroke"  transform=" translate(-2504, -3365.38)" d="M 2490 3378 C 2490 3359 2508 3335 2515 3342 C 2524 3351 2511 3390 2499 3390 C 2494 3390 2490 3384 2490 3378 z" stroke-linecap="round" />
</g>
		<g transform="matrix(0.13 0 0 -0.13 30.9 53.36)"  >
<path style="stroke: none; stroke-width: 1; stroke-dasharray: none; stroke-linecap: butt; stroke-dashoffset: 0; stroke-linejoin: miter; stroke-miterlimit: 4; fill: rgb(156,175,136); fill-rule: nonzero; opacity: 1;" vector-effect="non-scaling-stroke"  transform=" translate(-3800.64, -3278.09)" d="M 3797 3286 C 3792 3265 3791 3246 3794 3243 C 3803 3233 3812 3267 3808 3297 C 3805 3323 3804 3322 3797 3286 z" stroke-linecap="round" />
</g>
		<g transform="matrix(0.13 0 0 -0.13 -6.54 51.19)"  >
<path style="stroke: none; stroke-width: 1; stroke-dasharray: none; stroke-linecap: butt; stroke-dashoffset: 0; stroke-linejoin: miter; stroke-miterlimit: 4; fill: rgb(156,175,136); fill-rule: nonzero; opacity: 1;" vector-effect="non-scaling-stroke"  transform=" translate(-3519.81, -3294.4)" d="M 3517 3303 C 3513 3300 3510 3292 3510 3286 C 3510 3280 3515 3281 3522 3288 C 3528 3294 3531 3302 3529 3305 C 3526 3308 3520 3307 3517 3303 z" stroke-linecap="round" />
</g>
		<g transform="matrix(0.13 0 0 -0.13 -80.47 63.08)"  >
<path style="stroke: none; stroke-width: 1; stroke-dasharray: none; stroke-linecap: butt; stroke-dashoffset: 0; stroke-linejoin: miter; stroke-miterlimit: 4; fill: rgb(156,175,136); fill-rule: nonzero; opacity: 1;" vector-effect="non-scaling-stroke"  transform=" translate(-2965.35, -3205.21)" d="M 2955 3215 C 2927 3188 2923 3170 2944 3170 C 2957 3170 3000 3219 3000 3234 C 3000 3248 2978 3238 2955 3215 z" stroke-linecap="round" />
</g>
</g>
</g>
<g transform="matrix(1.1 0 0 1.1 -1055.4 540)"  >
<g style="" vector-effect="non-scaling-stroke"   >
		<g transform="matrix(0.13 0 0 -0.13 281.99 -32.76)"  >
<path style="stroke: none; stroke-width: 1; stroke-dasharray: none; stroke-linecap: butt; stroke-dashoffset: 0; stroke-linejoin: miter; stroke-miterlimit: 4; fill: rgb(156,175,136); fill-rule: nonzero; opacity: 1;" vector-effect="non-scaling-stroke"  transform=" translate(-5848.83, -4206.05)" d="M 5139 6785 C 4940 6745 4742 6603 4626 6417 C 4499 6214 4486 6016 4587 5816 C 4678 5635 4793 5511 5060 5311 C 5325 5111 5461 4968 5559 4787 C 5652 4615 5699 4452 5700 4303 L 5700 4220 L 5538 4220 C 5304 4220 4992 4183 4925 4147 C 4871 4119 4864 4056 4910 4017 C 4927 4002 4940 3981 4940 3969 C 4940 3942 4986 3897 5147 3768 C 5378 3581 5393 3541 5273 3429 C 5247 3404 5183 3356 5132 3321 C 5081 3287 5030 3244 5019 3227 C 4988 3177 4997 3071 5044 2953 C 5094 2824 5093 2815 5023 2782 C 4952 2750 4879 2744 4742 2759 C 4626 2771 4598 2765 4579 2718 C 4564 2681 4575 2644 4610 2619 C 4647 2593 4866 2574 4959 2590 C 5097 2613 5212 2689 5240 2775 C 5257 2828 5249 2879 5201 3009 C 5178 3072 5161 3128 5164 3135 C 5166 3142 5206 3172 5252 3202 C 5432 3320 5510 3423 5510 3545 C 5510 3664 5450 3738 5182 3955 C 5132 3995 5113 4016 5122 4021 C 5142 4031 5314 4049 5462 4056 C 5613 4063 5944 4046 6076 4025 C 6336 3983 6487 3874 6610 3637 C 6669 3524 6723 3381 6761 3236 C 6819 3014 6881 2711 6905 2535 C 6919 2436 6941 2279 6953 2185 C 6966 2092 6976 2013 6974 2011 C 6970 2006 6888 2078 6711 2238 C 6636 2306 6551 2378 6521 2398 C 6470 2433 6462 2435 6396 2434 C 6226 2430 5893 2336 5640 2220 C 5503 2158 5459 2135 5225 2005 C 5059 1912 4845 1805 4773 1779 C 4728 1762 4715 1751 4704 1723 C 4686 1680 4701 1642 4744 1621 C 4770 1609 4780 1610 4829 1625 C 4899 1647 5102 1748 5370 1895 C 5693 2071 5858 2144 6070 2205 C 6204 2243 6381 2275 6415 2266 C 6428 2263 6489 2214 6552 2157 C 6772 1957 6866 1878 6953 1819 C 7027 1770 7048 1760 7085 1760 C 7121 1760 7132 1765 7155 1792 C 7186 1828 7186 1838 7151 2000 C 7140 2052 7115 2219 7095 2370 C 7054 2692 7045 2743 6979 3035 C 6925 3274 6897 3375 6844 3519 C 6733 3819 6591 3999 6384 4103 L 6332 4129 L 6357 4197 C 6395 4303 6456 4515 6481 4635 C 6502 4731 6505 4772 6505 4950 C 6505 5247 6474 5454 6376 5821 C 6294 6127 6217 6296 6088 6453 C 6006 6552 5923 6618 5810 6675 C 5597 6782 5337 6824 5139 6785 z M 5387 6629 C 5602 6605 5787 6525 5910 6401 C 6049 6262 6126 6105 6211 5797 C 6302 5465 6343 5202 6343 4945 C 6344 4745 6308 4566 6212 4287 L 6175 4178 L 6140 4184 C 6121 4187 6053 4195 5989 4202 L 5873 4214 L 5867 4324 C 5851 4600 5742 4861 5543 5102 C 5455 5208 5376 5279 5165 5439 C 5066 5514 4954 5607 4915 5645 C 4763 5795 4668 5988 4684 6111 C 4700 6233 4771 6361 4879 6463 C 4984 6562 5086 6613 5215 6630 C 5248 6634 5279 6638 5283 6639 C 5287 6639 5334 6635 5387 6629 z" stroke-linecap="round" />
</g>
		<g transform="matrix(0.13 0 0 -0.13 -113.42 -111.26)"  >
<path style="stroke: none; stroke-width: 1; stroke-dasharray: none; stroke-linecap: butt; stroke-dashoffset: 0; stroke-linejoin: miter; stroke-miterlimit: 4; fill: rgb(156,175,136); fill-rule: nonzero; opacity: 1;" vector-effect="non-scaling-stroke"  transform=" translate(-2883.25, -4794.85)" d="M 3800 5428 C 3770 5412 3736 5381 3697 5330 C 3643 5261 3439 4957 3279 4708 C 3242 4651 3184 4567 3150 4521 L 3088 4437 L 2741 4444 C 2371 4451 2287 4458 2259 4487 C 2249 4497 2220 4543 2195 4590 C 2043 4868 1812 5143 1631 5261 C 1489 5355 1305 5388 1204 5339 C 1151 5314 1117 5267 1071 5156 C 997 4978 853 4390 847 4239 C 845 4195 848 4185 873 4164 C 907 4135 949 4133 978 4160 C 1002 4183 1002 4181 1029 4341 C 1077 4614 1200 5063 1253 5155 C 1276 5195 1276 5195 1336 5193 C 1449 5190 1561 5127 1691 4993 C 1840 4840 1948 4694 2043 4519 C 2132 4356 2165 4325 2279 4301 C 2345 4287 2896 4266 3030 4272 C 3202 4280 3186 4263 3635 4950 C 3694 5041 3770 5152 3804 5197 C 3857 5269 3869 5279 3896 5280 C 3992 5281 4149 5177 4267 5037 C 4403 4874 4672 4484 4735 4359 C 4784 4261 4795 4250 4841 4250 C 4885 4250 4920 4285 4920 4329 C 4920 4396 4755 4665 4511 4995 C 4332 5237 4173 5373 4005 5426 C 3910 5456 3857 5456 3800 5428 z" stroke-linecap="round" />
</g>
		<g transform="matrix(0.13 0 0 -0.13 -164.82 190.62)"  >
<path style="stroke: none; stroke-width: 1; stroke-dasharray: none; stroke-linecap: butt; stroke-dashoffset: 0; stroke-linejoin: miter; stroke-miterlimit: 4; fill: rgb(156,175,136); fill-rule: nonzero; opacity: 1;" vector-effect="non-scaling-stroke"  transform=" translate(-2497.74, -2530.72)" d="M 598 3907 C 517 3865 326 3726 306 3695 C 297 3682 290 3653 290 3632 C 290 3574 334 3524 462 3435 C 524 3392 577 3356 578 3354 C 586 3348 555 3268 493 3137 C 439 3024 427 2989 427 2947 C 426 2881 454 2825 512 2778 C 593 2712 660 2687 866 2644 L 997 2617 L 992 2394 C 987 2162 996 1982 1031 1610 C 1063 1271 1079 1219 1160 1186 C 1242 1153 1393 1176 1520 1240 C 1596 1279 1752 1396 1864 1500 C 1964 1593 2021 1623 2130 1642 C 2228 1658 2573 1658 2768 1642 C 2853 1636 3067 1630 3244 1630 L 3566 1630 L 3592 1603 C 3606 1587 3670 1505 3734 1418 C 3912 1177 3972 1129 4102 1122 C 4218 1115 4311 1171 4549 1390 C 4695 1524 4720 1562 4699 1612 C 4685 1646 4662 1660 4621 1660 C 4596 1660 4570 1640 4473 1549 C 4315 1399 4235 1334 4173 1304 C 4075 1256 4043 1279 3846 1544 C 3749 1674 3689 1745 3659 1765 L 3615 1795 L 3155 1801 C 2902 1805 2639 1813 2571 1819 C 2480 1828 2406 1828 2291 1820 C 1977 1799 1926 1781 1759 1628 C 1664 1541 1536 1441 1474 1404 C 1426 1376 1341 1345 1283 1335 C 1248 1330 1240 1331 1231 1348 C 1225 1359 1213 1440 1205 1527 C 1167 1922 1159 2065 1162 2325 L 1165 2588 L 1193 2614 C 1242 2659 1222 2740 1158 2755 C 1145 2758 1056 2776 960 2795 C 864 2815 756 2840 722 2851 C 659 2872 590 2921 590 2944 C 590 2951 612 3002 639 3057 C 738 3260 764 3372 725 3437 C 716 3453 657 3502 594 3545 C 531 3588 480 3625 480 3627 C 480 3633 622 3730 684 3765 C 764 3811 781 3839 761 3888 C 748 3918 714 3940 680 3940 C 670 3940 633 3925 598 3907 z" stroke-linecap="round" />
</g>
		<g transform="matrix(0.13 0 0 -0.13 -307.97 53.02)"  >
<path style="stroke: none; stroke-width: 1; stroke-dasharray: none; stroke-linecap: butt; stroke-dashoffset: 0; stroke-linejoin: miter; stroke-miterlimit: 4; fill: rgb(156,175,136); fill-rule: nonzero; opacity: 1;" vector-effect="non-scaling-stroke"  transform=" translate(-1424.11, -3562.76)" d="M 1294 3677 C 1234 3648 1214 3610 1231 3560 C 1237 3544 1246 3530 1251 3530 C 1255 3530 1282 3507 1310 3479 L 1362 3427 L 1426 3433 C 1542 3442 1625 3502 1623 3576 C 1621 3646 1549 3690 1425 3697 C 1355 3701 1338 3698 1294 3677 z" stroke-linecap="round" />
</g>
		<g transform="matrix(0.13 0 0 -0.13 40.79 55.07)"  >
<path style="stroke: none; stroke-width: 1; stroke-dasharray: none; stroke-linecap: butt; stroke-dashoffset: 0; stroke-linejoin: miter; stroke-miterlimit: 4; fill: rgb(156,175,136); fill-rule: nonzero; opacity: 1;" vector-effect="non-scaling-stroke"  transform=" translate(-4039.77, -3547.38)" d="M 3965 3693 C 3896 3687 3881 3681 3865 3650 C 3833 3588 3852 3498 3910 3447 C 3953 3407 3996 3395 4073 3402 C 4177 3411 4230 3457 4230 3537 C 4230 3600 4197 3637 4115 3669 C 4054 3692 4017 3698 3965 3693 z" stroke-linecap="round" />
</g>
		<g transform="matrix(0.13 0 0 -0.13 -146.39 95.02)"  >
<path style="stroke: none; stroke-width: 1; stroke-dasharray: none; stroke-linecap: butt; stroke-dashoffset: 0; stroke-linejoin: miter; stroke-miterlimit: 4; fill: rgb(156,175,136); fill-rule: nonzero; opacity: 1;" vector-effect="non-scaling-stroke"  transform=" translate(-2635.99, -3247.7)" d="M 2433 3439 C 2402 3430 2380 3408 2337 3341 C 2307 3294 2230 3244 2168 3230 C 2139 3224 2044 3220 1958 3221 C 1827 3222 1796 3220 1775 3206 C 1745 3186 1734 3147 1748 3115 C 1769 3070 1799 3060 1931 3054 C 2092 3045 2214 3061 2297 3101 C 2363 3132 2475 3227 2485 3261 C 2493 3285 2491 3285 2725 3210 C 2953 3136 3004 3127 3170 3126 C 3282 3126 3319 3130 3388 3149 C 3493 3179 3530 3207 3530 3260 C 3530 3290 3524 3303 3504 3319 C 3470 3346 3452 3345 3357 3315 C 3295 3295 3259 3290 3177 3290 C 3036 3290 2971 3303 2780 3365 C 2556 3439 2487 3453 2433 3439 z" stroke-linecap="round" />
</g>
</g>
</g>
<g transform="matrix(1.69 0 0 1.69 540 540)"  >
<g style="" vector-effect="non-scaling-stroke"   >
		<g transform="matrix(0.13 0 0 -0.13 -2.57 0)"  >
<path style="stroke: none; stroke-width: 1; stroke-dasharray: none; stroke-linecap: butt; stroke-dashoffset: 0; stroke-linejoin: miter; stroke-miterlimit: 4; fill: rgb(0,0,0); fill-rule: nonzero; opacity: 1;" vector-effect="non-scaling-stroke"  transform=" translate(-2815.4, -3910.79)" d="M 3001 6213 C 2989 6197 2976 6180 2971 6174 C 2956 6156 2932 6105 2910 6048 C 2888 5989 2798 5844 2751 5790 C 2734 5771 2713 5742 2704 5725 C 2696 5709 2683 5688 2676 5680 C 2669 5672 2658 5652 2652 5637 C 2645 5620 2626 5603 2605 5594 C 2563 5577 2402 5575 2365 5592 C 2339 5604 2215 5764 2143 5878 L 2104 5941 L 2090 5913 C 2079 5890 2076 5888 2072 5903 C 2070 5913 2074 5927 2080 5935 C 2090 5947 2089 5950 2076 5950 C 2067 5950 2060 5943 2060 5934 C 2060 5926 2053 5912 2045 5904 C 2037 5895 2030 5891 2030 5895 C 2030 5909 2061 5959 2072 5962 C 2085 5967 1981 6098 1923 6151 C 1892 6181 1815 6230 1802 6230 C 1797 6230 1792 6195 1791 6153 C 1790 6110 1785 6010 1780 5930 C 1766 5723 1761 5531 1770 5525 C 1774 5523 1781 5484 1784 5440 L 1791 5360 L 1756 5312 C 1737 5286 1700 5245 1675 5220 C 1649 5195 1608 5145 1583 5107 C 1511 5000 1518 4998 1372 5149 C 1262 5261 1239 5280 1200 5289 C 1109 5311 1073 5323 1000 5355 C 959 5373 889 5397 845 5410 C 801 5422 755 5436 742 5441 C 703 5456 683 5439 629 5343 C 577 5251 568 5227 564 5168 C 562 5133 557 5079 554 5047 C 544 4950 554 4926 633 4841 C 699 4772 771 4710 786 4710 C 797 4710 892 4638 955 4582 C 1006 4536 1018 4518 1038 4462 C 1063 4386 1066 4325 1046 4278 C 1038 4260 1019 4205 1005 4155 C 990 4106 959 4028 935 3984 C 911 3939 893 3900 896 3898 C 898 3895 894 3887 885 3880 C 877 3873 870 3862 870 3855 C 870 3847 866 3840 861 3838 C 856 3837 850 3818 847 3797 C 844 3777 837 3753 830 3745 C 823 3737 821 3730 824 3730 C 828 3730 826 3721 820 3710 C 812 3695 812 3690 822 3689 C 829 3689 826 3685 815 3680 C 804 3675 800 3671 807 3671 C 815 3670 816 3662 810 3643 C 796 3599 775 3546 768 3534 C 761 3524 744 3463 733 3410 C 731 3396 726 3378 723 3370 C 720 3362 716 3335 715 3310 C 713 3285 706 3252 700 3235 C 694 3219 687 3183 684 3155 C 682 3128 678 3096 675 3085 C 673 3074 668 3009 665 2940 C 662 2871 657 2802 655 2785 C 652 2769 655 2737 661 2715 C 667 2693 671 2664 671 2651 C 670 2617 750 2463 810 2384 C 904 2261 996 2182 1147 2096 C 1433 1933 1654 1782 1850 1617 C 1870 1600 2373 1595 2545 1610 C 2661 1620 2695 1619 2860 1600 C 3003 1583 3083 1579 3210 1583 C 3368 1587 3383 1589 3555 1634 C 3742 1683 3763 1692 3970 1815 C 4098 1892 4272 2019 4297 2056 C 4307 2071 4347 2117 4385 2159 C 4551 2339 4692 2551 4705 2640 C 4705 2643 4709 2651 4713 2657 C 4718 2665 4716 2670 4709 2670 C 4700 2670 4701 2674 4712 2683 C 4729 2696 4744 2744 4729 2734 C 4719 2728 4725 2764 4741 2808 C 4754 2842 4752 2910 4738 2910 C 4732 2910 4730 2913 4733 2917 C 4737 2920 4735 2929 4729 2937 C 4722 2944 4717 2968 4716 2991 C 4716 3013 4714 3026 4711 3019 C 4705 2999 4680 3083 4686 3105 C 4690 3119 4689 3121 4682 3112 C 4675 3102 4670 3111 4661 3145 C 4655 3170 4652 3195 4655 3201 C 4659 3206 4657 3210 4652 3210 C 4638 3210 4616 3297 4611 3373 C 4611 3383 4606 3388 4600 3385 C 4595 3382 4590 3385 4589 3392 C 4585 3468 4578 3507 4564 3517 C 4555 3524 4553 3530 4559 3534 C 4571 3542 4552 3591 4533 3603 C 4524 3608 4522 3623 4526 3650 C 4536 3709 4502 3827 4437 3957 C 4419 3994 4418 4003 4429 4024 C 4446 4055 4436 4072 4405 4064 C 4386 4059 4379 4064 4365 4094 L 4348 4130 L 4413 4203 C 4500 4298 4728 4529 4866 4660 C 4970 4759 4979 4770 5013 4852 C 5044 4924 5053 4962 5065 5072 C 5073 5145 5080 5253 5080 5311 C 5080 5408 5077 5423 5049 5485 C 4991 5615 4830 5729 4680 5748 C 4528 5767 4460 5754 4340 5684 C 4181 5591 4060 5516 3955 5446 C 3889 5401 3790 5336 3735 5301 C 3680 5265 3629 5231 3622 5224 C 3616 5217 3600 5208 3588 5204 C 3564 5197 3552 5209 3518 5275 C 3506 5297 3476 5341 3451 5373 C 3426 5405 3393 5447 3378 5466 C 3362 5487 3328 5572 3292 5683 C 3259 5783 3205 5921 3172 5989 C 3138 6057 3107 6125 3101 6141 C 3091 6171 3040 6240 3028 6240 C 3024 6240 3012 6228 3001 6213 z M 1799 5582 C 1795 5563 1790 5546 1787 5544 C 1781 5538 1781 5633 1788 5644 C 1798 5662 1807 5616 1799 5582 z M 4759 5614 C 4829 5581 4910 5514 4910 5489 C 4910 5479 4924 5455 4940 5436 C 4961 5412 4972 5388 4976 5354 C 4982 5298 5002 5220 5031 5142 C 5056 5073 5039 5083 5010 5155 C 4998 5186 4986 5209 4984 5208 C 4983 5206 4979 5173 4976 5135 C 4964 5002 4958 4975 4922 4910 C 4881 4834 4698 4626 4552 4486 C 4528 4464 4494 4424 4477 4398 C 4461 4371 4440 4350 4431 4350 C 4419 4350 4418 4348 4427 4342 C 4442 4332 4372 4228 4237 4057 C 4179 3984 4138 3922 4130 3897 C 4124 3874 4092 3799 4059 3730 C 4027 3661 4000 3600 4000 3596 C 4000 3592 4011 3575 4024 3559 C 4037 3544 4050 3526 4052 3520 C 4054 3513 4065 3513 4088 3521 C 4105 3527 4118 3536 4115 3541 C 4108 3551 4186 3745 4240 3851 C 4261 3894 4282 3944 4285 3964 C 4295 4014 4315 4025 4307 3975 C 4303 3950 4305 3933 4314 3924 C 4322 3917 4331 3894 4334 3873 C 4344 3820 4363 3780 4377 3780 C 4384 3780 4390 3772 4390 3761 C 4390 3751 4397 3723 4405 3700 C 4413 3677 4422 3635 4425 3606 C 4431 3534 4504 3212 4541 3094 C 4557 3039 4575 2973 4581 2945 C 4586 2918 4598 2889 4607 2883 C 4622 2871 4622 2866 4602 2817 C 4589 2787 4557 2699 4530 2620 C 4500 2531 4473 2469 4459 2456 C 4444 2442 4441 2441 4449 2453 C 4461 2468 4461 2470 4444 2463 C 4407 2450 4356 2405 4329 2361 C 4303 2320 4299 2292 4321 2306 C 4326 2309 4328 2316 4324 2321 C 4321 2326 4323 2329 4327 2328 C 4332 2326 4348 2339 4363 2355 C 4378 2372 4390 2379 4390 2371 C 4390 2347 4240 2201 4221 2207 C 4209 2212 4208 2210 4216 2201 C 4225 2191 4215 2176 4171 2136 C 4083 2055 4035 2026 3783 1903 C 3488 1760 3479 1756 3455 1754 C 3444 1753 3409 1740 3378 1726 C 3346 1712 3320 1702 3320 1705 C 3320 1707 3303 1702 3283 1693 C 3217 1665 3178 1661 3070 1670 C 3012 1675 2889 1682 2795 1686 C 2702 1689 2621 1695 2615 1699 C 2610 1702 2472 1705 2309 1705 C 2077 1705 2010 1708 1997 1718 C 1988 1726 1976 1729 1970 1725 C 1965 1722 1960 1724 1960 1729 C 1960 1735 1954 1740 1947 1740 C 1925 1740 1821 1800 1811 1818 C 1806 1827 1799 1834 1795 1832 C 1792 1830 1768 1847 1743 1870 C 1718 1892 1702 1910 1707 1910 C 1713 1910 1723 1903 1730 1894 C 1738 1886 1753 1874 1764 1869 C 1776 1864 1765 1877 1740 1899 C 1694 1941 1672 1952 1605 1969 C 1583 1975 1527 2004 1480 2033 C 1433 2063 1344 2113 1283 2145 C 1198 2189 1170 2208 1170 2223 C 1170 2234 1127 2285 1067 2344 C 1010 2400 956 2462 947 2482 C 937 2502 922 2521 912 2525 C 891 2532 841 2601 838 2627 C 838 2637 838 2659 839 2675 L 841 2705 L 860 2665 C 876 2631 879 2628 879 2650 C 879 2664 873 2684 865 2694 C 857 2705 850 2725 850 2739 C 850 2753 838 2799 825 2840 C 811 2881 802 2904 804 2890 C 806 2876 811 2849 814 2830 C 820 2795 820 2795 796 2841 C 772 2886 771 2891 781 2986 C 797 3160 830 3299 906 3528 C 947 3650 978 3756 974 3763 C 970 3769 971 3772 975 3768 C 980 3763 992 3784 1003 3813 C 1048 3936 1100 4096 1100 4113 C 1100 4122 1107 4130 1115 4130 C 1133 4130 1134 4142 1118 4158 C 1110 4166 1110 4170 1117 4170 C 1130 4170 1163 4248 1155 4261 C 1151 4266 1153 4270 1158 4270 C 1163 4270 1167 4278 1167 4288 C 1168 4303 1093 4515 1058 4596 C 1043 4632 991 4679 935 4708 C 913 4719 879 4744 860 4765 C 841 4785 807 4814 785 4830 C 679 4905 650 4958 650 5082 C 650 5170 674 5241 718 5278 C 737 5295 741 5303 732 5307 C 715 5314 766 5350 792 5350 C 802 5350 865 5326 932 5296 C 1000 5266 1080 5234 1110 5225 C 1140 5216 1179 5203 1196 5197 C 1234 5183 1350 5076 1350 5056 C 1350 5040 1444 4935 1459 4935 C 1464 4935 1480 4925 1494 4913 C 1508 4900 1520 4895 1520 4900 C 1520 4915 1536 4912 1554 4895 C 1562 4886 1573 4881 1577 4882 C 1589 4885 1664 4844 1718 4805 C 1781 4760 2286 4510 2380 4477 C 2454 4451 2564 4427 2670 4415 C 2700 4411 2772 4402 2830 4394 C 2887 4385 2948 4377 2965 4374 C 3017 4367 3063 4360 3120 4350 C 3278 4323 3680 4351 3860 4401 C 3901 4413 3946 4423 3960 4425 C 3974 4426 3994 4432 4005 4438 C 4044 4459 4146 4502 4225 4530 C 4327 4566 4512 4654 4530 4675 C 4538 4684 4560 4700 4580 4710 C 4600 4720 4649 4765 4690 4811 C 4731 4856 4777 4906 4793 4922 C 4808 4938 4820 4955 4820 4961 C 4820 4967 4828 4984 4839 4998 C 4863 5032 4874 5110 4872 5228 C 4870 5334 4857 5393 4832 5412 C 4823 5419 4810 5434 4804 5445 C 4779 5490 4744 5504 4663 5502 C 4567 5501 4543 5496 4508 5470 C 4493 5459 4477 5450 4471 5450 C 4445 5450 4268 5352 4209 5304 C 4172 5273 4140 5246 4138 5242 C 4133 5231 4021 5137 3946 5081 C 3836 4999 3836 4999 3922 4942 C 4092 4830 4164 4768 4186 4713 C 4197 4689 4204 4682 4218 4687 C 4233 4693 4233 4692 4222 4677 C 4204 4655 3840 4513 3670 4461 C 3596 4439 3506 4418 3471 4415 C 3408 4410 3407 4410 3425 4430 C 3435 4441 3462 4461 3485 4475 C 3570 4524 3651 4640 3681 4755 C 3697 4812 3698 4923 3684 5025 C 3676 5083 3672 5095 3657 5092 C 3603 5083 3689 5149 3810 5210 C 3846 5228 3918 5273 3970 5309 C 4118 5414 4299 5534 4363 5570 C 4492 5642 4659 5661 4759 5614 z M 4721 5367 C 4756 5337 4789 5216 4784 5140 C 4774 5019 4752 4985 4619 4885 C 4514 4806 4433 4761 4412 4768 C 4406 4770 4400 4767 4400 4761 C 4400 4755 4393 4750 4385 4750 C 4365 4750 4320 4728 4325 4721 C 4327 4717 4318 4713 4306 4712 C 4283 4710 4277 4731 4294 4758 C 4298 4764 4297 4770 4291 4770 C 4285 4770 4283 4777 4286 4785 C 4290 4793 4287 4800 4281 4800 C 4275 4800 4270 4808 4270 4818 C 4270 4838 4197 4914 4188 4905 C 4185 4901 4179 4904 4174 4911 C 4170 4919 4171 4921 4178 4916 C 4197 4904 4192 4915 4168 4936 C 4156 4946 4150 4949 4154 4943 C 4165 4924 4145 4927 4129 4947 C 4117 4961 4117 4963 4129 4955 C 4138 4950 4141 4951 4136 4958 C 4132 4964 4123 4967 4115 4964 C 4104 4959 4072 4998 4078 5008 C 4085 5018 4077 5028 4066 5024 C 4058 5021 4049 5023 4046 5029 C 4042 5035 4083 5072 4137 5111 C 4191 5151 4267 5207 4305 5236 C 4385 5295 4419 5314 4499 5342 C 4652 5396 4684 5400 4721 5367 z M 3338 5130 C 3388 5104 3401 5091 3420 5049 C 3450 4986 3451 4865 3423 4828 C 3381 4775 3316 4724 3277 4714 C 3254 4708 3236 4698 3238 4692 C 3239 4685 3236 4680 3230 4680 C 3225 4680 3220 4686 3220 4693 C 3220 4699 3215 4697 3209 4687 C 3200 4672 3189 4670 3137 4675 C 3103 4679 3073 4686 3069 4692 C 3065 4699 3060 4699 3055 4691 C 3051 4683 3039 4691 3022 4713 C 3007 4731 2987 4754 2978 4763 C 2951 4791 2937 4848 2944 4909 C 2953 4989 2953 4992 2973 5023 C 2982 5038 2997 5062 3006 5076 C 3014 5090 3041 5114 3064 5129 C 3101 5152 3120 5156 3194 5159 C 3273 5161 3284 5159 3338 5130 z M 2420 5095 C 2472 5068 2489 5036 2516 4921 C 2530 4864 2531 4843 2522 4829 C 2515 4819 2510 4801 2510 4790 C 2510 4740 2433 4665 2356 4640 C 2249 4605 2067 4664 2024 4747 C 1981 4830 1978 4850 1997 4913 C 2019 4989 2074 5048 2165 5095 C 2232 5130 2237 5131 2305 5125 C 2346 5120 2393 5108 2420 5095 z M 1928 4972 C 1930 4965 1926 4962 1916 4966 C 1907 4969 1900 4977 1900 4982 C 1900 4995 1923 4987 1928 4972 z M 2810 4724 C 2810 4716 2806 4712 2800 4715 C 2795 4718 2790 4728 2790 4736 C 2790 4744 2795 4748 2800 4745 C 2806 4742 2810 4732 2810 4724 z M 3460 4729 C 3460 4724 3456 4720 3450 4720 C 3445 4720 3440 4727 3440 4736 C 3440 4744 3445 4748 3450 4745 C 3456 4742 3460 4735 3460 4729 z M 3270 4629 C 3256 4603 3252 4605 3258 4635 C 3260 4649 3266 4657 3271 4654 C 3276 4651 3276 4640 3270 4629 z M 2851 4617 C 2841 4608 2840 4609 2846 4623 C 2849 4633 2855 4638 2858 4635 C 2861 4632 2858 4624 2851 4617 z M 3000 4604 C 3000 4588 2974 4585 2965 4600 C 2962 4606 2961 4614 2965 4620 C 2973 4633 3000 4621 3000 4604 z M 3075 4612 C 3072 4609 3064 4612 3057 4619 C 3048 4629 3049 4630 3063 4624 C 3073 4621 3078 4615 3075 4612 z M 804 2701 C 828 2655 823 2651 789 2690 C 769 2713 761 2731 764 2745 C 767 2756 770 2776 771 2790 C 772 2806 775 2801 780 2773 C 785 2750 796 2718 804 2701 z M 834 2738 C 839 2716 837 2712 825 2716 C 815 2720 810 2735 810 2759 C 811 2798 822 2788 834 2738 z" stroke-linecap="round" />
</g>
		<g transform="matrix(0.13 0 0 -0.13 -229.24 -120.07)"  >
<path style="stroke: none; stroke-width: 1; stroke-dasharray: none; stroke-linecap: butt; stroke-dashoffset: 0; stroke-linejoin: miter; stroke-miterlimit: 4; fill: rgb(0,0,0); fill-rule: nonzero; opacity: 1;" vector-effect="non-scaling-stroke"  transform=" translate(-1115.34, -4811.28)" d="M 840 5149 C 821 5144 794 5143 780 5145 C 758 5150 753 5145 741 5113 C 733 5092 727 5050 728 5020 C 729 4975 734 4961 755 4943 C 769 4931 780 4917 780 4913 C 780 4899 840 4835 850 4838 C 856 4839 860 4836 860 4830 C 860 4825 869 4820 880 4820 C 891 4820 900 4814 900 4807 C 900 4793 941 4750 953 4750 C 957 4750 982 4736 1009 4719 C 1037 4703 1068 4688 1079 4687 C 1090 4687 1098 4682 1097 4677 C 1096 4672 1100 4666 1105 4664 C 1111 4662 1117 4672 1118 4687 C 1119 4702 1126 4718 1133 4723 C 1142 4729 1141 4731 1129 4727 C 1121 4724 1108 4730 1102 4740 C 1096 4751 1071 4767 1048 4778 C 982 4807 920 4858 860 4934 C 787 5025 787 5024 810 5052 C 827 5075 835 5077 902 5075 C 992 5072 1161 5023 1218 4983 C 1240 4968 1272 4931 1290 4901 C 1312 4865 1325 4852 1330 4860 C 1335 4867 1336 4880 1333 4889 C 1329 4902 1330 4903 1338 4891 C 1345 4881 1345 4870 1339 4859 C 1333 4846 1342 4807 1374 4716 C 1405 4630 1415 4590 1407 4587 C 1391 4581 1334 4611 1285 4650 C 1262 4668 1238 4679 1228 4677 C 1218 4674 1212 4676 1216 4681 C 1219 4686 1216 4690 1209 4690 C 1202 4690 1189 4697 1179 4706 C 1168 4716 1160 4718 1155 4711 C 1152 4705 1156 4697 1164 4694 C 1186 4686 1184 4673 1160 4667 C 1137 4661 1143 4630 1167 4630 C 1190 4630 1235 4603 1285 4560 C 1310 4538 1340 4520 1350 4520 C 1360 4520 1372 4516 1375 4510 C 1378 4505 1389 4500 1399 4500 C 1408 4500 1425 4492 1436 4482 C 1447 4471 1467 4464 1480 4465 C 1504 4467 1505 4469 1501 4535 C 1499 4575 1486 4637 1470 4684 C 1384 4933 1395 4911 1311 4994 C 1268 5036 1228 5070 1223 5070 C 1217 5070 1203 5079 1190 5090 C 1177 5101 1158 5110 1148 5110 C 1137 5110 1119 5115 1107 5122 C 1095 5128 1042 5139 990 5146 C 881 5161 886 5161 840 5149 z" stroke-linecap="round" />
</g>
		<g transform="matrix(0.13 0 0 -0.13 258.72 -125.15)"  >
<path style="stroke: none; stroke-width: 1; stroke-dasharray: none; stroke-linecap: butt; stroke-dashoffset: 0; stroke-linejoin: miter; stroke-miterlimit: 4; fill: rgb(0,0,0); fill-rule: nonzero; opacity: 1;" vector-effect="non-scaling-stroke"  transform=" translate(-4775.08, -4849.38)" d="M 4764 4843 C 4737 4811 4725 4792 4737 4801 C 4757 4815 4826 4900 4817 4900 C 4815 4900 4792 4874 4764 4843 z" stroke-linecap="round" />
</g>
		<g transform="matrix(0.13 0 0 -0.13 242.25 -108.5)"  >
<path style="stroke: none; stroke-width: 1; stroke-dasharray: none; stroke-linecap: butt; stroke-dashoffset: 0; stroke-linejoin: miter; stroke-miterlimit: 4; fill: rgb(0,0,0); fill-rule: nonzero; opacity: 1;" vector-effect="non-scaling-stroke"  transform=" translate(-4651.55, -4724.5)" d="M 4645 4725 C 4629 4712 4620 4701 4626 4700 C 4632 4700 4647 4711 4660 4725 C 4690 4757 4684 4757 4645 4725 z" stroke-linecap="round" />
</g>
		<g transform="matrix(0.13 0 0 -0.13 -40.37 23.18)"  >
<path style="stroke: none; stroke-width: 1; stroke-dasharray: none; stroke-linecap: butt; stroke-dashoffset: 0; stroke-linejoin: miter; stroke-miterlimit: 4; fill: rgb(0,0,0); fill-rule: nonzero; opacity: 1;" vector-effect="non-scaling-stroke"  transform=" translate(-2531.85, -3736.95)" d="M 1672 4484 C 1658 4454 1656 4393 1669 4385 C 1674 4382 1681 4365 1685 4347 C 1692 4312 1754 4184 1777 4159 C 1785 4149 1806 4120 1823 4092 C 1841 4065 1881 4005 1913 3959 C 1945 3913 1988 3850 2009 3819 C 2030 3788 2060 3745 2077 3724 C 2124 3663 2295 3409 2315 3370 C 2325 3351 2336 3333 2340 3330 C 2344 3327 2363 3300 2383 3270 C 2424 3204 2435 3194 2475 3184 C 2491 3180 2536 3162 2575 3144 C 2700 3087 2762 3072 3153 3010 C 3257 2993 3352 2977 3365 2974 C 3385 2969 3387 2972 3384 2997 C 3382 3013 3387 3044 3395 3065 C 3409 3108 3405 3125 3387 3099 C 3372 3079 3365 3079 3196 3096 C 3120 3104 3031 3110 2999 3110 C 2955 3110 2926 3117 2889 3136 C 2861 3150 2804 3170 2762 3181 C 2612 3219 2542 3270 2434 3420 C 2279 3636 2271 3647 2283 3659 C 2291 3667 2290 3670 2277 3670 C 2267 3670 2220 3720 2167 3788 C 2057 3927 2037 3958 1977 4071 C 1936 4149 1889 4220 1808 4329 C 1793 4349 1765 4393 1745 4427 C 1698 4508 1686 4517 1672 4484 z" stroke-linecap="round" />
</g>
		<g transform="matrix(0.13 0 0 -0.13 -62 -52.78)"  >
<path style="stroke: none; stroke-width: 1; stroke-dasharray: none; stroke-linecap: butt; stroke-dashoffset: 0; stroke-linejoin: miter; stroke-miterlimit: 4; fill: rgb(0,0,0); fill-rule: nonzero; opacity: 1;" vector-effect="non-scaling-stroke"  transform=" translate(-2369.68, -4306.65)" d="M 2184 4433 C 2209 4401 2275 4327 2332 4267 C 2442 4153 2430 4159 2573 4126 C 2615 4116 2600 4133 2517 4189 C 2448 4235 2416 4266 2304 4389 C 2273 4423 2235 4452 2202 4466 C 2173 4479 2147 4490 2144 4490 C 2141 4490 2159 4464 2184 4433 z" stroke-linecap="round" />
</g>
		<g transform="matrix(0.13 0 0 -0.13 -31.97 -44.54)"  >
<path style="stroke: none; stroke-width: 1; stroke-dasharray: none; stroke-linecap: butt; stroke-dashoffset: 0; stroke-linejoin: miter; stroke-miterlimit: 4; fill: rgb(0,0,0); fill-rule: nonzero; opacity: 1;" vector-effect="non-scaling-stroke"  transform=" translate(-2594.85, -4244.82)" d="M 2370 4403 C 2370 4389 2497 4269 2603 4183 C 2674 4125 2711 4101 2738 4097 C 2758 4094 2785 4088 2798 4084 C 2829 4075 2826 4098 2794 4110 C 2743 4130 2673 4185 2574 4286 C 2498 4361 2464 4390 2439 4395 C 2420 4398 2397 4404 2388 4406 C 2378 4409 2370 4408 2370 4403 z" stroke-linecap="round" />
</g>
		<g transform="matrix(0.13 0 0 -0.13 -4.28 -39.74)"  >
<path style="stroke: none; stroke-width: 1; stroke-dasharray: none; stroke-linecap: butt; stroke-dashoffset: 0; stroke-linejoin: miter; stroke-miterlimit: 4; fill: rgb(0,0,0); fill-rule: nonzero; opacity: 1;" vector-effect="non-scaling-stroke"  transform=" translate(-2802.55, -4208.87)" d="M 2550 4373 C 2551 4360 2573 4337 2614 4306 C 2636 4290 2674 4258 2700 4236 C 2726 4213 2771 4175 2800 4150 C 2830 4125 2861 4097 2869 4088 C 2878 4078 2894 4070 2906 4070 C 2918 4070 2947 4063 2970 4055 C 2993 4047 3026 4040 3042 4040 C 3068 4040 3061 4048 2968 4123 C 2838 4229 2728 4309 2670 4342 C 2624 4368 2550 4387 2550 4373 z" stroke-linecap="round" />
</g>
		<g transform="matrix(0.13 0 0 -0.13 31.38 -31.29)"  >
<path style="stroke: none; stroke-width: 1; stroke-dasharray: none; stroke-linecap: butt; stroke-dashoffset: 0; stroke-linejoin: miter; stroke-miterlimit: 4; fill: rgb(0,0,0); fill-rule: nonzero; opacity: 1;" vector-effect="non-scaling-stroke"  transform=" translate(-3070, -4145.49)" d="M 2770 4331 C 2770 4325 2775 4320 2780 4320 C 2786 4320 2810 4302 2833 4279 C 2875 4238 2975 4164 3072 4103 C 3135 4063 3161 4040 3154 4029 C 3146 4016 3200 3993 3277 3977 C 3316 3969 3353 3959 3359 3956 C 3365 3952 3370 3951 3370 3954 C 3370 3957 3345 3976 3314 3996 C 3283 4017 3199 4081 3126 4138 C 2950 4279 2872 4329 2816 4336 C 2785 4341 2770 4339 2770 4331 z" stroke-linecap="round" />
</g>
		<g transform="matrix(0.13 0 0 -0.13 -9.72 0.04)"  >
<path style="stroke: none; stroke-width: 1; stroke-dasharray: none; stroke-linecap: butt; stroke-dashoffset: 0; stroke-linejoin: miter; stroke-miterlimit: 4; fill: rgb(0,0,0); fill-rule: nonzero; opacity: 1;" vector-effect="non-scaling-stroke"  transform=" translate(-2761.76, -3910.5)" d="M 2120 4130 C 2120 4125 2111 4112 2099 4102 C 2081 4084 2080 4081 2094 4067 C 2103 4058 2136 4046 2167 4040 C 2199 4034 2299 4012 2390 3990 C 2481 3968 2616 3937 2690 3921 C 2764 3904 2864 3879 2913 3865 C 2961 3851 3002 3840 3005 3840 C 3008 3840 3018 3823 3029 3803 C 3040 3782 3065 3748 3085 3726 C 3115 3696 3132 3686 3166 3682 C 3190 3680 3210 3681 3210 3685 C 3210 3689 3199 3705 3185 3722 C 3159 3753 3152 3790 3172 3790 C 3179 3790 3231 3778 3288 3764 C 3344 3750 3398 3741 3405 3744 C 3414 3747 3420 3763 3420 3784 C 3420 3803 3425 3822 3430 3825 C 3453 3839 3435 3847 3348 3858 C 3297 3864 3185 3885 3100 3905 C 3015 3924 2905 3950 2855 3961 C 2806 3972 2664 4008 2540 4041 C 2360 4088 2142 4140 2123 4140 C 2121 4140 2120 4136 2120 4130 z" stroke-linecap="round" />
</g>
		<g transform="matrix(0.13 0 0 -0.13 -25.29 -27.9)"  >
<path style="stroke: none; stroke-width: 1; stroke-dasharray: none; stroke-linecap: butt; stroke-dashoffset: 0; stroke-linejoin: miter; stroke-miterlimit: 4; fill: rgb(0,0,0); fill-rule: nonzero; opacity: 1;" vector-effect="non-scaling-stroke"  transform=" translate(-2645, -4120)" d="M 2635 4120 C 2638 4115 2646 4110 2651 4110 C 2657 4110 2658 4115 2655 4120 C 2652 4126 2644 4130 2639 4130 C 2633 4130 2632 4126 2635 4120 z" stroke-linecap="round" />
</g>
		<g transform="matrix(0.13 0 0 -0.13 -8.65 18.4)"  >
<path style="stroke: none; stroke-width: 1; stroke-dasharray: none; stroke-linecap: butt; stroke-dashoffset: 0; stroke-linejoin: miter; stroke-miterlimit: 4; fill: rgb(0,0,0); fill-rule: nonzero; opacity: 1;" vector-effect="non-scaling-stroke"  transform=" translate(-2769.78, -3772.82)" d="M 2616 3891 C 2609 3880 2686 3777 2759 3698 C 2802 3651 2804 3650 2863 3650 L 2924 3650 L 2897 3678 C 2882 3693 2870 3710 2870 3716 C 2870 3721 2837 3758 2798 3797 C 2740 3854 2717 3870 2685 3876 C 2663 3879 2640 3887 2633 3892 C 2626 3897 2619 3897 2616 3891 z" stroke-linecap="round" />
</g>
		<g transform="matrix(0.13 0 0 -0.13 -27.95 20.7)"  >
<path style="stroke: none; stroke-width: 1; stroke-dasharray: none; stroke-linecap: butt; stroke-dashoffset: 0; stroke-linejoin: miter; stroke-miterlimit: 4; fill: rgb(0,0,0); fill-rule: nonzero; opacity: 1;" vector-effect="non-scaling-stroke"  transform=" translate(-2625, -3755.55)" d="M 2460 3881 C 2460 3847 2541 3743 2625 3669 C 2680 3621 2684 3619 2736 3622 C 2766 3624 2790 3627 2790 3631 C 2790 3637 2630 3793 2562 3853 C 2534 3878 2510 3890 2490 3890 C 2473 3890 2460 3886 2460 3881 z" stroke-linecap="round" />
</g>
		<g transform="matrix(0.13 0 0 -0.13 -83.88 79.69)"  >
<path style="stroke: none; stroke-width: 1; stroke-dasharray: none; stroke-linecap: butt; stroke-dashoffset: 0; stroke-linejoin: miter; stroke-miterlimit: 4; fill: rgb(0,0,0); fill-rule: nonzero; opacity: 1;" vector-effect="non-scaling-stroke"  transform=" translate(-2205.55, -3313.09)" d="M 1874 3840 C 1877 3824 1872 3806 1856 3785 L 1832 3754 L 1879 3690 C 1905 3654 1966 3562 2015 3485 C 2063 3408 2144 3285 2194 3211 C 2244 3137 2292 3067 2300 3054 C 2413 2883 2496 2774 2515 2772 C 2536 2771 2537 2773 2527 2810 C 2513 2859 2523 2869 2561 2848 C 2588 2832 2587 2835 2543 2891 C 2467 2988 2450 3013 2456 3022 C 2463 3033 2420 3091 2360 3150 C 2335 3175 2293 3233 2265 3280 C 2238 3327 2186 3410 2150 3465 C 2113 3520 2062 3599 2036 3640 C 1966 3749 1944 3780 1904 3825 C 1873 3860 1869 3862 1874 3840 z" stroke-linecap="round" />
</g>
		<g transform="matrix(0.13 0 0 -0.13 14.69 22.03)"  >
<path style="stroke: none; stroke-width: 1; stroke-dasharray: none; stroke-linecap: butt; stroke-dashoffset: 0; stroke-linejoin: miter; stroke-miterlimit: 4; fill: rgb(0,0,0); fill-rule: nonzero; opacity: 1;" vector-effect="non-scaling-stroke"  transform=" translate(-2944.83, -3745.58)" d="M 2834 3829 C 2827 3817 2854 3768 2889 3731 C 2906 3713 2920 3694 2920 3689 C 2920 3675 2967 3667 3011 3673 C 3035 3676 3050 3674 3050 3667 C 3050 3661 3053 3659 3056 3663 C 3059 3666 3053 3681 3042 3697 C 3032 3712 3017 3741 3010 3760 C 2998 3794 2993 3797 2918 3816 C 2875 3827 2837 3833 2834 3829 z" stroke-linecap="round" />
</g>
		<g transform="matrix(0.13 0 0 -0.13 -42.7 29.62)"  >
<path style="stroke: none; stroke-width: 1; stroke-dasharray: none; stroke-linecap: butt; stroke-dashoffset: 0; stroke-linejoin: miter; stroke-miterlimit: 4; fill: rgb(0,0,0); fill-rule: nonzero; opacity: 1;" vector-effect="non-scaling-stroke"  transform=" translate(-2514.37, -3688.65)" d="M 2418 3766 C 2402 3745 2404 3741 2446 3675 C 2471 3637 2496 3602 2503 3598 C 2520 3587 2620 3588 2620 3599 C 2620 3604 2613 3614 2603 3621 C 2594 3629 2559 3669 2526 3710 C 2492 3751 2458 3786 2450 3787 C 2442 3788 2428 3779 2418 3766 z" stroke-linecap="round" />
</g>
		<g transform="matrix(0.13 0 0 -0.13 -96.18 98.97)"  >
<path style="stroke: none; stroke-width: 1; stroke-dasharray: none; stroke-linecap: butt; stroke-dashoffset: 0; stroke-linejoin: miter; stroke-miterlimit: 4; fill: rgb(0,0,0); fill-rule: nonzero; opacity: 1;" vector-effect="non-scaling-stroke"  transform=" translate(-2113.3, -3168.54)" d="M 1799 3603 C 1781 3591 1762 3579 1757 3577 C 1752 3576 1794 3515 1851 3444 C 1950 3320 2007 3235 2103 3074 C 2126 3034 2168 2967 2197 2924 C 2225 2880 2266 2819 2286 2786 C 2328 2722 2361 2699 2388 2717 C 2397 2723 2405 2738 2404 2750 C 2403 2769 2407 2771 2437 2765 C 2455 2762 2470 2761 2470 2763 C 2470 2765 2451 2779 2428 2794 C 2388 2819 2281 2953 2180 3104 C 2160 3133 2128 3178 2109 3206 C 2089 3233 2061 3278 2046 3305 C 2032 3333 2000 3387 1975 3425 C 1950 3464 1922 3510 1912 3529 C 1903 3548 1881 3577 1864 3594 L 1832 3626 L 1799 3603 z" stroke-linecap="round" />
</g>
		<g transform="matrix(0.13 0 0 -0.13 -130.86 95.89)"  >
<path style="stroke: none; stroke-width: 1; stroke-dasharray: none; stroke-linecap: butt; stroke-dashoffset: 0; stroke-linejoin: miter; stroke-miterlimit: 4; fill: rgb(0,0,0); fill-rule: nonzero; opacity: 1;" vector-effect="non-scaling-stroke"  transform=" translate(-1853.22, -3191.62)" d="M 1680 3535 C 1661 3521 1642 3510 1638 3510 C 1635 3510 1620 3506 1606 3500 L 1580 3491 L 1630 3444 C 1658 3418 1680 3394 1680 3389 C 1680 3385 1698 3362 1720 3338 C 1772 3283 1800 3230 1800 3185 C 1800 3122 1777 3137 1670 3270 C 1557 3411 1566 3402 1538 3389 L 1513 3378 L 1535 3354 C 1547 3341 1568 3330 1581 3330 C 1598 3329 1613 3317 1633 3285 C 1649 3260 1659 3237 1657 3233 C 1654 3228 1675 3205 1703 3180 C 1778 3113 1820 3071 1870 3010 C 1895 2980 1934 2935 1958 2909 C 1981 2884 2000 2858 2000 2852 C 2000 2834 2037 2819 2065 2826 C 2094 2833 2094 2834 2078 2860 C 2067 2877 2068 2882 2079 2889 C 2090 2896 2078 2914 2029 2966 C 1993 3004 1954 3051 1940 3070 C 1927 3089 1894 3129 1868 3159 C 1841 3188 1810 3229 1799 3249 C 1788 3269 1746 3325 1705 3375 C 1618 3480 1619 3510 1708 3423 C 1779 3354 1850 3265 1981 3083 C 2062 2971 2088 2942 2130 2918 C 2178 2891 2215 2887 2179 2913 C 2171 2920 2119 2994 2066 3079 C 2012 3163 1945 3265 1916 3304 C 1840 3410 1726 3559 1720 3559 C 1717 3559 1699 3548 1680 3535 z" stroke-linecap="round" />
</g>
		<g transform="matrix(0.13 0 0 -0.13 44.51 76.31)"  >
<path style="stroke: none; stroke-width: 1; stroke-dasharray: none; stroke-linecap: butt; stroke-dashoffset: 0; stroke-linejoin: miter; stroke-miterlimit: 4; fill: rgb(0,0,0); fill-rule: nonzero; opacity: 1;" vector-effect="non-scaling-stroke"  transform=" translate(-3168.5, -3338.49)" d="M 2976 3525 L 2947 3501 L 2975 3463 C 2991 3442 3012 3416 3022 3405 C 3043 3381 3151 3249 3180 3213 C 3193 3196 3215 3185 3246 3179 C 3271 3174 3314 3159 3341 3146 C 3368 3132 3390 3124 3390 3128 C 3390 3132 3360 3166 3324 3204 C 3288 3242 3250 3291 3238 3314 C 3211 3367 3043 3550 3021 3550 C 3012 3549 2992 3539 2976 3525 z" stroke-linecap="round" />
</g>
		<g transform="matrix(0.13 0 0 -0.13 16.41 74.16)"  >
<path style="stroke: none; stroke-width: 1; stroke-dasharray: none; stroke-linecap: butt; stroke-dashoffset: 0; stroke-linejoin: miter; stroke-miterlimit: 4; fill: rgb(0,0,0); fill-rule: nonzero; opacity: 1;" vector-effect="non-scaling-stroke"  transform=" translate(-2957.73, -3354.56)" d="M 2805 3478 L 2780 3455 L 2864 3350 C 2923 3277 2945 3243 2937 3237 C 2930 3232 2933 3231 2945 3234 C 2956 3237 2997 3232 3036 3222 C 3075 3212 3116 3207 3126 3210 C 3142 3216 3139 3220 3107 3241 C 3087 3254 3068 3272 3065 3280 C 3062 3288 3042 3315 3020 3338 C 2998 3362 2980 3385 2980 3389 C 2980 3393 2958 3419 2931 3448 C 2876 3507 2847 3514 2805 3478 z" stroke-linecap="round" />
</g>
		<g transform="matrix(0.13 0 0 -0.13 -179.61 96.59)"  >
<path style="stroke: none; stroke-width: 1; stroke-dasharray: none; stroke-linecap: butt; stroke-dashoffset: 0; stroke-linejoin: miter; stroke-miterlimit: 4; fill: rgb(0,0,0); fill-rule: nonzero; opacity: 1;" vector-effect="non-scaling-stroke"  transform=" translate(-1487.56, -3186.33)" d="M 1407 3298 C 1436 3269 1493 3194 1534 3131 C 1576 3068 1610 3020 1610 3023 C 1610 3050 1469 3279 1447 3289 C 1442 3291 1423 3305 1405 3321 C 1351 3369 1352 3354 1407 3298 z" stroke-linecap="round" />
</g>
		<g transform="matrix(0.13 0 0 -0.13 65.22 88.9)"  >
<path style="stroke: none; stroke-width: 1; stroke-dasharray: none; stroke-linecap: butt; stroke-dashoffset: 0; stroke-linejoin: miter; stroke-miterlimit: 4; fill: rgb(0,0,0); fill-rule: nonzero; opacity: 1;" vector-effect="non-scaling-stroke"  transform=" translate(-3323.8, -3244.01)" d="M 3300 3263 C 3300 3248 3328 3220 3343 3220 C 3350 3220 3349 3225 3340 3233 C 3332 3239 3320 3252 3313 3260 C 3305 3269 3301 3271 3300 3263 z" stroke-linecap="round" />
</g>
		<g transform="matrix(0.13 0 0 -0.13 -180.25 128.28)"  >
<path style="stroke: none; stroke-width: 1; stroke-dasharray: none; stroke-linecap: butt; stroke-dashoffset: 0; stroke-linejoin: miter; stroke-miterlimit: 4; fill: rgb(0,0,0); fill-rule: nonzero; opacity: 1;" vector-effect="non-scaling-stroke"  transform=" translate(-1482.79, -2948.7)" d="M 1310 3156 C 1310 3128 1629 2743 1653 2741 C 1665 2740 1638 2773 1513 2911 C 1451 2979 1380 3064 1355 3100 C 1330 3135 1310 3160 1310 3156 z" stroke-linecap="round" />
</g>
		<g transform="matrix(0.13 0 0 -0.13 -254.09 131.22)"  >
<path style="stroke: none; stroke-width: 1; stroke-dasharray: none; stroke-linecap: butt; stroke-dashoffset: 0; stroke-linejoin: miter; stroke-miterlimit: 4; fill: rgb(0,0,0); fill-rule: nonzero; opacity: 1;" vector-effect="non-scaling-stroke"  transform=" translate(-929, -2926.63)" d="M 927 3053 C 923 3050 921 2990 922 2921 L 923 2795 L 930 2925 C 935 2997 937 3056 936 3058 C 934 3059 930 3057 927 3053 z" stroke-linecap="round" />
</g>
		<g transform="matrix(0.13 0 0 -0.13 -41.46 124.55)"  >
<path style="stroke: none; stroke-width: 1; stroke-dasharray: none; stroke-linecap: butt; stroke-dashoffset: 0; stroke-linejoin: miter; stroke-miterlimit: 4; fill: rgb(0,0,0); fill-rule: nonzero; opacity: 1;" vector-effect="non-scaling-stroke"  transform=" translate(-2523.69, -2976.63)" d="M 2500 2982 C 2500 2969 2538 2959 2546 2971 C 2549 2976 2547 2980 2541 2980 C 2536 2980 2525 2983 2516 2986 C 2507 2989 2500 2988 2500 2982 z" stroke-linecap="round" />
</g>
		<g transform="matrix(0.13 0 0 -0.13 81.41 165.21)"  >
<path style="stroke: none; stroke-width: 1; stroke-dasharray: none; stroke-linecap: butt; stroke-dashoffset: 0; stroke-linejoin: miter; stroke-miterlimit: 4; fill: rgb(0,0,0); fill-rule: nonzero; opacity: 1;" vector-effect="non-scaling-stroke"  transform=" translate(-3445.2, -2671.69)" d="M 2995 2940 C 2986 2926 2998 2910 3017 2910 C 3035 2910 3257 2761 3430 2633 C 3593 2513 3772 2396 3792 2397 C 3806 2398 3906 2489 3898 2494 C 3801 2553 3765 2572 3721 2590 C 3653 2617 3627 2630 3633 2637 C 3636 2639 3649 2636 3662 2630 C 3683 2619 3684 2619 3670 2633 C 3651 2653 3390 2810 3376 2810 C 3371 2810 3375 2803 3386 2794 C 3396 2786 3398 2782 3390 2786 C 3382 2790 3368 2799 3360 2805 C 3352 2812 3314 2834 3276 2854 C 3238 2874 3201 2895 3194 2901 C 3187 2907 3145 2918 3100 2926 C 3055 2933 3015 2942 3010 2945 C 3005 2948 2999 2946 2995 2940 z" stroke-linecap="round" />
</g>
		<g transform="matrix(0.13 0 0 -0.13 231.45 134.77)"  >
<path style="stroke: none; stroke-width: 1; stroke-dasharray: none; stroke-linecap: butt; stroke-dashoffset: 0; stroke-linejoin: miter; stroke-miterlimit: 4; fill: rgb(0,0,0); fill-rule: nonzero; opacity: 1;" vector-effect="non-scaling-stroke"  transform=" translate(-4570.5, -2900)" d="M 4562 2920 C 4562 2906 4565 2886 4570 2875 L 4579 2855 L 4578 2875 C 4578 2886 4574 2906 4570 2920 L 4562 2945 L 4562 2920 z" stroke-linecap="round" />
</g>
		<g transform="matrix(0.13 0 0 -0.13 42.78 195.07)"  >
<path style="stroke: none; stroke-width: 1; stroke-dasharray: none; stroke-linecap: butt; stroke-dashoffset: 0; stroke-linejoin: miter; stroke-miterlimit: 4; fill: rgb(0,0,0); fill-rule: nonzero; opacity: 1;" vector-effect="non-scaling-stroke"  transform=" translate(-3155.5, -2447.78)" d="M 3044 2699 C 3034 2694 3008 2684 2988 2676 L 2951 2661 L 2997 2578 C 3023 2532 3059 2464 3078 2425 C 3128 2321 3217 2190 3236 2190 C 3245 2190 3270 2195 3291 2201 C 3321 2210 3333 2210 3345 2200 C 3353 2193 3360 2191 3360 2196 C 3360 2210 3298 2309 3255 2365 C 3207 2428 3149 2547 3124 2633 C 3105 2702 3087 2716 3044 2699 z" stroke-linecap="round" />
</g>
		<g transform="matrix(0.13 0 0 -0.13 22.49 203.21)"  >
<path style="stroke: none; stroke-width: 1; stroke-dasharray: none; stroke-linecap: butt; stroke-dashoffset: 0; stroke-linejoin: miter; stroke-miterlimit: 4; fill: rgb(0,0,0); fill-rule: nonzero; opacity: 1;" vector-effect="non-scaling-stroke"  transform=" translate(-3003.3, -2386.73)" d="M 2841 2644 C 2817 2631 2793 2619 2788 2618 C 2778 2614 2819 2549 3008 2267 C 3096 2136 3124 2101 3134 2109 C 3141 2115 3163 2126 3184 2133 L 3220 2145 L 3186 2195 C 3157 2237 3111 2313 3014 2480 C 2991 2519 2938 2633 2936 2650 C 2932 2673 2890 2670 2841 2644 z" stroke-linecap="round" />
</g>
		<g transform="matrix(0.13 0 0 -0.13 -163.54 203.59)"  >
<path style="stroke: none; stroke-width: 1; stroke-dasharray: none; stroke-linecap: butt; stroke-dashoffset: 0; stroke-linejoin: miter; stroke-miterlimit: 4; fill: rgb(0,0,0); fill-rule: nonzero; opacity: 1;" vector-effect="non-scaling-stroke"  transform=" translate(-1608.1, -2383.82)" d="M 1410 2636 C 1410 2632 1425 2605 1444 2577 C 1462 2548 1511 2473 1552 2410 C 1631 2288 1736 2168 1792 2136 C 1818 2121 1810 2133 1754 2191 C 1681 2267 1607 2363 1505 2510 C 1432 2616 1410 2645 1410 2636 z" stroke-linecap="round" />
</g>
		<g transform="matrix(0.13 0 0 -0.13 -235.3 183.82)"  >
<path style="stroke: none; stroke-width: 1; stroke-dasharray: none; stroke-linecap: butt; stroke-dashoffset: 0; stroke-linejoin: miter; stroke-miterlimit: 4; fill: rgb(0,0,0); fill-rule: nonzero; opacity: 1;" vector-effect="non-scaling-stroke"  transform=" translate(-1069.93, -2532.17)" d="M 998 2594 C 1011 2570 1046 2534 1098 2493 C 1156 2446 1161 2452 1110 2507 L 1065 2553 L 1105 2525 L 1145 2496 L 1111 2533 C 1092 2553 1073 2567 1068 2564 C 1063 2561 1043 2571 1024 2585 C 996 2606 990 2608 998 2594 z" stroke-linecap="round" />
</g>
		<g transform="matrix(0.13 0 0 -0.13 144.05 196.35)"  >
<path style="stroke: none; stroke-width: 1; stroke-dasharray: none; stroke-linecap: butt; stroke-dashoffset: 0; stroke-linejoin: miter; stroke-miterlimit: 4; fill: rgb(0,0,0); fill-rule: nonzero; opacity: 1;" vector-effect="non-scaling-stroke"  transform=" translate(-3915, -2438.13)" d="M 3904 2472 C 3875 2447 3830 2389 3830 2377 C 3830 2371 3886 2402 3939 2437 C 3972 2458 3972 2458 3950 2470 C 3938 2476 3931 2484 3934 2487 C 3937 2490 3945 2488 3952 2483 C 3971 2468 4000 2460 4000 2469 C 4000 2477 3956 2500 3942 2500 C 3938 2500 3921 2487 3904 2472 z" stroke-linecap="round" />
</g>
		<g transform="matrix(0.13 0 0 -0.13 -222.59 217.98)"  >
<path style="stroke: none; stroke-width: 1; stroke-dasharray: none; stroke-linecap: butt; stroke-dashoffset: 0; stroke-linejoin: miter; stroke-miterlimit: 4; fill: rgb(0,0,0); fill-rule: nonzero; opacity: 1;" vector-effect="non-scaling-stroke"  transform=" translate(-1165.19, -2275.93)" d="M 1144 2288 C 1224 2199 1250 2177 1250 2197 C 1250 2203 1164 2287 1085 2358 C 1069 2373 1096 2341 1144 2288 z" stroke-linecap="round" />
</g>
		<g transform="matrix(0.13 0 0 -0.13 23.45 235.83)"  >
<path style="stroke: none; stroke-width: 1; stroke-dasharray: none; stroke-linecap: butt; stroke-dashoffset: 0; stroke-linejoin: miter; stroke-miterlimit: 4; fill: rgb(0,0,0); fill-rule: nonzero; opacity: 1;" vector-effect="non-scaling-stroke"  transform=" translate(-3010.5, -2142.06)" d="M 2862 2311 L 2850 2272 L 2957 2101 C 3074 1912 3063 1921 3142 1953 L 3171 1965 L 3028 2157 C 2949 2262 2882 2349 2879 2349 C 2876 2350 2868 2333 2862 2311 z" stroke-linecap="round" />
</g>
		<g transform="matrix(0.13 0 0 -0.13 -42.02 239.79)"  >
<path style="stroke: none; stroke-width: 1; stroke-dasharray: none; stroke-linecap: butt; stroke-dashoffset: 0; stroke-linejoin: miter; stroke-miterlimit: 4; fill: rgb(0,0,0); fill-rule: nonzero; opacity: 1;" vector-effect="non-scaling-stroke"  transform=" translate(-2519.5, -2112.39)" d="M 2371 2279 L 2349 2249 L 2456 2085 C 2515 1995 2570 1920 2579 1918 C 2602 1912 2690 1921 2690 1929 C 2690 1932 2673 1953 2652 1975 C 2583 2048 2520 2132 2520 2150 C 2520 2167 2438 2288 2416 2302 C 2399 2314 2395 2312 2371 2279 z" stroke-linecap="round" />
</g>
		<g transform="matrix(0.13 0 0 -0.13 -212.47 223.18)"  >
<path style="stroke: none; stroke-width: 1; stroke-dasharray: none; stroke-linecap: butt; stroke-dashoffset: 0; stroke-linejoin: miter; stroke-miterlimit: 4; fill: rgb(0,0,0); fill-rule: nonzero; opacity: 1;" vector-effect="non-scaling-stroke"  transform=" translate(-1241.13, -2236.96)" d="M 1239 2236 C 1277 2196 1282 2193 1274 2213 C 1271 2221 1255 2237 1237 2250 L 1205 2273 L 1239 2236 z" stroke-linecap="round" />
</g>
		<g transform="matrix(0.13 0 0 -0.13 70.92 224.85)"  >
<path style="stroke: none; stroke-width: 1; stroke-dasharray: none; stroke-linecap: butt; stroke-dashoffset: 0; stroke-linejoin: miter; stroke-miterlimit: 4; fill: rgb(0,0,0); fill-rule: nonzero; opacity: 1;" vector-effect="non-scaling-stroke"  transform=" translate(-3366.55, -2224.41)" d="M 3361 2230 C 3375 2199 3380 2194 3380 2206 C 3380 2212 3373 2225 3364 2236 C 3350 2254 3350 2254 3361 2230 z" stroke-linecap="round" />
</g>
		<g transform="matrix(0.13 0 0 -0.13 -60.25 247.78)"  >
<path style="stroke: none; stroke-width: 1; stroke-dasharray: none; stroke-linecap: butt; stroke-dashoffset: 0; stroke-linejoin: miter; stroke-miterlimit: 4; fill: rgb(0,0,0); fill-rule: nonzero; opacity: 1;" vector-effect="non-scaling-stroke"  transform=" translate(-2382.79, -2052.44)" d="M 2258 2183 L 2211 2136 L 2348 2003 C 2469 1885 2488 1870 2510 1876 C 2524 1880 2542 1882 2551 1882 C 2562 1882 2548 1909 2504 1968 C 2469 2016 2420 2083 2395 2117 C 2370 2152 2344 2191 2338 2205 C 2332 2219 2322 2230 2316 2230 C 2310 2230 2284 2209 2258 2183 z" stroke-linecap="round" />
</g>
		<g transform="matrix(0.13 0 0 -0.13 10.79 248.37)"  >
<path style="stroke: none; stroke-width: 1; stroke-dasharray: none; stroke-linecap: butt; stroke-dashoffset: 0; stroke-linejoin: miter; stroke-miterlimit: 4; fill: rgb(0,0,0); fill-rule: nonzero; opacity: 1;" vector-effect="non-scaling-stroke"  transform=" translate(-2915.58, -2048.02)" d="M 2795 2185 C 2786 2160 2781 2133 2784 2125 C 2795 2095 2950 1872 2962 1868 C 2972 1864 3035 1877 3048 1886 C 3051 1888 2857 2194 2839 2217 C 2821 2238 2814 2233 2795 2185 z" stroke-linecap="round" />
</g>
		<g transform="matrix(0.13 0 0 -0.13 -176.62 242.77)"  >
<path style="stroke: none; stroke-width: 1; stroke-dasharray: none; stroke-linecap: butt; stroke-dashoffset: 0; stroke-linejoin: miter; stroke-miterlimit: 4; fill: rgb(0,0,0); fill-rule: nonzero; opacity: 1;" vector-effect="non-scaling-stroke"  transform=" translate(-1510, -2090)" d="M 1480 2106 C 1480 2103 1494 2094 1510 2085 C 1527 2076 1540 2072 1540 2074 C 1540 2077 1527 2086 1510 2095 C 1494 2104 1480 2108 1480 2106 z" stroke-linecap="round" />
</g>
		<g transform="matrix(0.13 0 0 -0.13 -69.66 261.19)"  >
<path style="stroke: none; stroke-width: 1; stroke-dasharray: none; stroke-linecap: butt; stroke-dashoffset: 0; stroke-linejoin: miter; stroke-miterlimit: 4; fill: rgb(0,0,0); fill-rule: nonzero; opacity: 1;" vector-effect="non-scaling-stroke"  transform=" translate(-2312.17, -1951.89)" d="M 2165 2090 C 2160 2075 2183 2040 2260 1946 C 2315 1878 2367 1817 2374 1811 C 2393 1795 2460 1787 2460 1801 C 2460 1814 2192 2110 2180 2110 C 2175 2110 2169 2101 2165 2090 z" stroke-linecap="round" />
</g>
		<g transform="matrix(0.13 0 0 -0.13 -2.07 260.89)"  >
<path style="stroke: none; stroke-width: 1; stroke-dasharray: none; stroke-linecap: butt; stroke-dashoffset: 0; stroke-linejoin: miter; stroke-miterlimit: 4; fill: rgb(0,0,0); fill-rule: nonzero; opacity: 1;" vector-effect="non-scaling-stroke"  transform=" translate(-2819.13, -1954.12)" d="M 2716 2030 C 2689 1955 2690 1935 2723 1924 C 2755 1914 2822 1843 2808 1834 C 2788 1822 2835 1811 2886 1816 C 2911 1818 2937 1823 2941 1826 C 2950 1831 2783 2085 2771 2085 C 2768 2085 2760 2089 2754 2093 C 2746 2097 2733 2076 2716 2030 z" stroke-linecap="round" />
</g>
		<g transform="matrix(0.13 0 0 -0.13 44.71 247.87)"  >
<path style="stroke: none; stroke-width: 1; stroke-dasharray: none; stroke-linecap: butt; stroke-dashoffset: 0; stroke-linejoin: miter; stroke-miterlimit: 4; fill: rgb(0,0,0); fill-rule: nonzero; opacity: 1;" vector-effect="non-scaling-stroke"  transform=" translate(-3170, -2051.8)" d="M 3160 2049 C 3160 2044 3165 2042 3170 2045 C 3176 2048 3180 2053 3180 2056 C 3180 2058 3176 2060 3170 2060 C 3165 2060 3160 2055 3160 2049 z" stroke-linecap="round" />
</g>
		<g transform="matrix(0.13 0 0 -0.13 -83.87 265.11)"  >
<path style="stroke: none; stroke-width: 1; stroke-dasharray: none; stroke-linecap: butt; stroke-dashoffset: 0; stroke-linejoin: miter; stroke-miterlimit: 4; fill: rgb(0,0,0); fill-rule: nonzero; opacity: 1;" vector-effect="non-scaling-stroke"  transform=" translate(-2205.63, -1922.47)" d="M 2120 2044 C 2120 2037 2107 2018 2092 2002 C 2068 1976 2066 1971 2080 1967 C 2089 1965 2125 1929 2160 1889 C 2226 1812 2241 1803 2302 1801 L 2340 1800 L 2305 1848 C 2258 1913 2121 2058 2120 2044 z" stroke-linecap="round" />
</g>
		<g transform="matrix(0.13 0 0 -0.13 -80.9 286.71)"  >
<path style="stroke: none; stroke-width: 1; stroke-dasharray: none; stroke-linecap: butt; stroke-dashoffset: 0; stroke-linejoin: miter; stroke-miterlimit: 4; fill: rgb(0,0,0); fill-rule: nonzero; opacity: 1;" vector-effect="non-scaling-stroke"  transform=" translate(-2227.87, -1760.46)" d="M 2197 1767 C 2191 1750 2222 1738 2246 1747 C 2264 1754 2264 1770 2246 1770 C 2238 1770 2225 1773 2217 1776 C 2209 1779 2200 1775 2197 1767 z" stroke-linecap="round" />
</g>
		<g transform="matrix(0.13 0 0 -0.13 -73.17 287.41)"  >
<path style="stroke: none; stroke-width: 1; stroke-dasharray: none; stroke-linecap: butt; stroke-dashoffset: 0; stroke-linejoin: miter; stroke-miterlimit: 4; fill: rgb(0,0,0); fill-rule: nonzero; opacity: 1;" vector-effect="non-scaling-stroke"  transform=" translate(-2285.86, -1755.19)" d="M 2278 1753 C 2285 1750 2294 1751 2297 1754 C 2301 1757 2295 1760 2284 1759 C 2273 1759 2270 1756 2278 1753 z" stroke-linecap="round" />
</g>
		<g transform="matrix(0.13 0 0 -0.13 67.4 288.8)"  >
<path style="stroke: none; stroke-width: 1; stroke-dasharray: none; stroke-linecap: butt; stroke-dashoffset: 0; stroke-linejoin: miter; stroke-miterlimit: 4; fill: rgb(0,0,0); fill-rule: nonzero; opacity: 1;" vector-effect="non-scaling-stroke"  transform=" translate(-3340.18, -1744.75)" d="M 3328 1743 C 3334 1741 3346 1741 3353 1743 C 3359 1746 3354 1748 3340 1748 C 3326 1748 3321 1746 3328 1743 z" stroke-linecap="round" />
</g>
		<g transform="matrix(0.13 0 0 -0.13 45.97 -132.32)"  >
<path style="stroke: none; stroke-width: 1; stroke-dasharray: none; stroke-linecap: butt; stroke-dashoffset: 0; stroke-linejoin: miter; stroke-miterlimit: 4; fill: rgb(0,0,0); fill-rule: nonzero; opacity: 1;" vector-effect="non-scaling-stroke"  transform=" translate(-3179.43, -4903.2)" d="M 3165 5059 C 3143 5056 3102 5042 3074 5028 C 3033 5006 3021 4994 3012 4963 C 2990 4895 3001 4863 3071 4782 C 3105 4742 3110 4740 3163 4740 C 3216 4740 3220 4742 3274 4794 C 3305 4823 3330 4851 3330 4855 C 3330 4860 3337 4871 3346 4881 C 3372 4909 3349 5007 3309 5041 C 3277 5069 3253 5072 3165 5059 z" stroke-linecap="round" />
</g>
		<g transform="matrix(0.13 0 0 -0.13 -75.97 -127.86)"  >
<path style="stroke: none; stroke-width: 1; stroke-dasharray: none; stroke-linecap: butt; stroke-dashoffset: 0; stroke-linejoin: miter; stroke-miterlimit: 4; fill: rgb(0,0,0); fill-rule: nonzero; opacity: 1;" vector-effect="non-scaling-stroke"  transform=" translate(-2264.88, -4869.76)" d="M 2163 5009 C 2108 4981 2099 4972 2085 4932 C 2066 4875 2066 4844 2085 4837 C 2093 4833 2108 4813 2119 4792 C 2164 4704 2231 4680 2329 4718 C 2364 4731 2383 4748 2416 4797 L 2459 4860 L 2433 4917 C 2419 4949 2395 4988 2379 5005 C 2355 5030 2342 5035 2288 5038 C 2232 5041 2218 5038 2163 5009 z" stroke-linecap="round" />
</g>
		<g transform="matrix(0.13 0 0 -0.13 304.08 -192.78)"  >
<path style="stroke: none; stroke-width: 1; stroke-dasharray: none; stroke-linecap: butt; stroke-dashoffset: 0; stroke-linejoin: miter; stroke-miterlimit: 4; fill: rgb(0,0,0); fill-rule: nonzero; opacity: 1;" vector-effect="non-scaling-stroke"  transform=" translate(-5115.25, -5356.61)" d="M 5112 5355 C 5112 5339 5114 5333 5117 5343 C 5119 5352 5119 5366 5117 5373 C 5114 5379 5112 5372 5112 5355 z" stroke-linecap="round" />
</g>
		<g transform="matrix(0.13 0 0 -0.13 217.45 -6.26)"  >
<path style="stroke: none; stroke-width: 1; stroke-dasharray: none; stroke-linecap: butt; stroke-dashoffset: 0; stroke-linejoin: miter; stroke-miterlimit: 4; fill: rgb(0,0,0); fill-rule: nonzero; opacity: 1;" vector-effect="non-scaling-stroke"  transform=" translate(-4465.5, -3957.72)" d="M 4450 3985 C 4451 3979 4457 3964 4466 3950 L 4481 3925 L 4474 3950 C 4467 3976 4450 4002 4450 3985 z" stroke-linecap="round" />
</g>
</g>
</g>
</svg>