<?xml version="1.0" encoding="UTF-8" standalone="no" ?>
<!DOCTYPE svg PUBLIC "-//W3C//DTD SVG 1.1//EN" "http://www.w3.org/Graphics/SVG/1.1/DTD/svg11.dtd">
<svg xmlns="http://www.w3.org/2000/svg" xmlns:xlink="http://www.w3.org/1999/xlink" version="1.1" width="1080" height="1080" viewBox="0 0 1080 1080" xml:space="preserve">
<desc>Created with Fabric.js 5.2.4</desc>
<defs>
</defs>
<g transform="matrix(1 0 0 1 540 540)" id="8b24473f-1264-444e-bd11-a2f1b616f079"  >
<rect style="stroke: none; stroke-width: 1; stroke-dasharray: none; stroke-linecap: butt; stroke-dashoffset: 0; stroke-linejoin: miter; stroke-miterlimit: 4; fill: rgb(255,255,255); fill-rule: nonzero; opacity: 1; visibility: hidden;" vector-effect="non-scaling-stroke"  x="-540" y="-540" rx="0" ry="0" width="1080" height="1080" />
</g>
<g transform="matrix(1 0 0 1 540 540)" id="94f7c34d-b3e0-4514-9917-eae54281e1ac"  >
</g>
<g transform="matrix(1.62 0 0 1.62 555.82 540)"  >
<g style="" vector-effect="non-scaling-stroke"   >
		<g transform="matrix(0.13 0 0 -0.13 0 0)"  >
<path style="stroke: none; stroke-width: 1; stroke-dasharray: none; stroke-linecap: butt; stroke-dashoffset: 0; stroke-linejoin: miter; stroke-miterlimit: 4; fill: rgb(156,175,136); fill-rule: nonzero; opacity: 1;" vector-effect="non-scaling-stroke"  transform=" translate(-3568.88, -3678.32)" d="M 2800 6083 C 2786 6081 2710 6066 2630 6050 C 2550 6034 2451 6016 2410 6010 C 2227 5982 2028 5912 2011 5868 C 1989 5814 1959 5700 1950 5636 C 1944 5599 1938 5564 1935 5560 C 1926 5545 1890 5180 1890 5102 C 1890 5060 1885 4984 1880 4934 C 1875 4884 1868 4580 1865 4259 C 1860 3704 1859 3668 1836 3537 C 1804 3347 1812 3315 1877 3374 C 1968 3457 2011 3493 2014 3489 C 2026 3474 2091 3316 2100 3278 C 2107 3251 2117 3230 2121 3230 C 2139 3230 2215 3284 2267 3333 C 2296 3361 2322 3381 2324 3379 C 2326 3377 2351 3328 2380 3272 L 2433 3168 L 2424 3057 C 2411 2894 2416 2586 2434 2462 C 2442 2403 2452 2319 2455 2275 C 2463 2177 2487 2007 2501 1960 C 2507 1941 2525 1873 2541 1810 C 2572 1689 2675 1438 2717 1383 C 2749 1339 2779 1333 2834 1359 C 2918 1400 2973 1508 2989 1662 C 3000 1762 3020 1976 3026 2050 C 3028 2074 3037 2115 3045 2140 C 3053 2165 3066 2217 3074 2255 L 3089 2325 L 3082 2225 C 3078 2170 3075 2046 3075 1950 C 3075 1799 3078 1763 3098 1685 C 3134 1548 3206 1378 3243 1343 C 3311 1280 3443 1251 3509 1284 C 3569 1315 3607 1373 3640 1482 C 3657 1539 3680 1608 3689 1635 C 3699 1663 3713 1710 3720 1740 C 3726 1770 3749 1849 3770 1915 C 3791 1981 3827 2134 3850 2255 C 3873 2376 3896 2489 3901 2505 L 3909 2535 L 3905 2505 C 3902 2489 3896 2426 3890 2365 C 3884 2305 3873 2230 3865 2200 C 3857 2170 3848 2114 3845 2075 C 3842 2037 3833 1980 3825 1950 C 3789 1808 3778 1748 3787 1739 C 3803 1723 3827 1739 3845 1779 C 3854 1800 3873 1824 3886 1831 C 3900 1838 3919 1858 3930 1875 C 3940 1892 3968 1923 3990 1943 C 4030 1978 4031 1982 4025 2023 C 4022 2046 4014 2080 4008 2099 C 4000 2125 4001 2146 4015 2194 C 4024 2227 4037 2265 4042 2276 C 4072 2340 4306 2572 4353 2583 C 4375 2589 4375 2589 4355 2574 C 4254 2500 4138 2378 4088 2292 C 4051 2227 4035 2129 4056 2090 C 4081 2042 4088 2025 4094 1985 L 4101 1945 L 4027 1907 C 3876 1830 3834 1768 3842 1635 C 3847 1553 3869 1503 3931 1429 C 3992 1356 4022 1346 4175 1346 C 4286 1346 4314 1349 4365 1369 C 4524 1430 4599 1464 4622 1485 C 4636 1498 4666 1518 4690 1530 C 4743 1557 4824 1632 4858 1684 C 4871 1706 4907 1789 4937 1869 C 4982 1989 4993 2033 5001 2115 C 5010 2203 5015 2223 5052 2290 C 5074 2331 5114 2395 5141 2431 C 5238 2563 5277 2698 5265 2865 C 5257 2976 5247 3024 5210 3120 C 5178 3202 5155 3301 5138 3426 C 5128 3500 5129 3514 5150 3581 C 5162 3622 5196 3707 5225 3771 C 5285 3900 5320 4013 5320 4078 C 5320 4132 5281 4211 5240 4240 C 5212 4260 5206 4261 5178 4249 C 5074 4206 4875 3946 4802 3760 C 4758 3647 4747 3582 4754 3473 C 4759 3389 4767 3354 4797 3278 C 4817 3224 4835 3160 4837 3124 C 4842 3067 4841 3061 4814 3037 C 4778 3004 4760 3003 4722 3035 C 4705 3049 4688 3060 4682 3060 C 4672 3060 4629 3114 4577 3195 C 4560 3223 4532 3284 4516 3331 C 4489 3415 4488 3420 4500 3506 C 4506 3555 4522 3646 4536 3709 C 4560 3822 4602 4157 4615 4340 C 4619 4392 4642 4566 4666 4727 C 4690 4887 4710 5042 4710 5072 C 4710 5101 4717 5172 4726 5230 C 4734 5288 4743 5419 4746 5522 C 4752 5743 4766 5722 4592 5750 C 4528 5761 4459 5774 4440 5780 C 4384 5797 4084 5849 3975 5860 C 3797 5878 3611 5918 3200 6025 C 3006 6075 2873 6095 2800 6083 z M 2905 5995 C 2938 5991 3005 5973 3053 5954 C 3106 5934 3200 5910 3288 5895 C 3369 5881 3494 5856 3565 5840 C 3718 5806 3831 5786 3955 5770 C 4116 5750 4162 5739 4244 5701 C 4289 5681 4376 5649 4438 5631 C 4499 5612 4550 5594 4550 5590 C 4550 5585 4540 5580 4528 5576 C 4504 5571 4455 5538 4226 5380 C 4150 5328 4047 5260 3997 5230 C 3910 5176 3882 5150 3913 5150 C 3935 5150 4088 5226 4240 5311 C 4314 5353 4434 5420 4505 5459 C 4577 5498 4650 5540 4669 5552 L 4703 5574 L 4697 5448 C 4693 5378 4685 5298 4680 5268 C 4674 5239 4663 5154 4654 5080 C 4645 5006 4637 4943 4635 4940 C 4632 4935 4602 4758 4576 4585 C 4567 4530 4553 4406 4545 4310 C 4537 4214 4526 4092 4520 4040 C 4515 3988 4508 3914 4504 3875 C 4501 3837 4489 3758 4479 3700 C 4468 3642 4455 3541 4450 3475 C 4439 3342 4421 3248 4408 3256 C 4404 3259 4400 3269 4400 3279 C 4400 3296 4354 3348 4346 3339 C 4335 3327 4294 3236 4274 3180 C 4242 3087 4236 3089 4191 3203 C 4185 3218 4174 3230 4166 3230 C 4146 3230 4022 3104 3977 3038 L 3938 2982 L 3892 3034 C 3866 3062 3838 3096 3830 3109 L 3814 3132 L 3750 3066 C 3715 3030 3685 3002 3682 3004 C 3680 3006 3685 3044 3693 3087 C 3702 3130 3716 3212 3725 3270 C 3734 3328 3745 3389 3751 3406 C 3756 3423 3781 3536 3805 3656 C 3849 3868 3862 3977 3890 4345 C 3897 4428 3910 4558 3920 4635 L 3938 4775 L 3914 4939 C 3901 5029 3889 5105 3887 5107 C 3881 5112 3861 4925 3850 4775 C 3810 4194 3756 3755 3700 3546 C 3675 3450 3630 3183 3630 3126 C 3630 3043 3592 2880 3573 2880 C 3568 2880 3547 2915 3526 2958 C 3504 3000 3481 3039 3473 3043 C 3466 3047 3460 3062 3460 3075 C 3460 3089 3457 3100 3454 3100 C 3428 3100 3304 2985 3253 2915 C 3241 2899 3229 2888 3226 2891 C 3222 2894 3211 2928 3200 2966 C 3182 3032 3127 3153 3100 3184 C 3091 3196 3083 3197 3068 3189 C 3042 3175 2980 3120 2902 3042 C 2864 3003 2838 2984 2836 2992 C 2834 2999 2829 3037 2826 3075 C 2823 3115 2806 3187 2787 3242 L 2753 3339 L 2713 3319 C 2691 3308 2665 3292 2654 3282 C 2629 3259 2511 3186 2507 3191 C 2505 3193 2491 3231 2476 3275 C 2445 3362 2369 3490 2347 3490 C 2339 3490 2325 3480 2314 3469 C 2294 3446 2195 3380 2181 3380 C 2177 3380 2165 3371 2154 3359 C 2136 3339 2136 3339 2122 3377 C 2115 3398 2104 3438 2098 3465 C 2085 3525 2054 3589 2034 3597 C 2026 3600 1998 3583 1966 3556 C 1936 3531 1909 3510 1907 3510 C 1900 3510 1909 3629 1921 3700 C 1926 3730 1935 3937 1940 4160 C 1949 4574 1963 4962 1980 5265 C 1985 5359 1992 5487 1995 5550 C 1998 5613 2006 5708 2012 5761 L 2024 5856 L 2164 5873 C 2297 5888 2494 5928 2710 5984 C 2762 5997 2814 6007 2825 6005 C 2836 6003 2872 5998 2905 5995 z" stroke-linecap="round" />
</g>
		<g transform="matrix(0.13 0 0 -0.13 -131.07 -297.55)"  >
<path style="stroke: none; stroke-width: 1; stroke-dasharray: none; stroke-linecap: butt; stroke-dashoffset: 0; stroke-linejoin: miter; stroke-miterlimit: 4; fill: rgb(156,175,136); fill-rule: nonzero; opacity: 1;" vector-effect="non-scaling-stroke"  transform=" translate(-2585.84, -5909.94)" d="M 2585 5929 C 2569 5924 2537 5916 2516 5912 C 2494 5908 2475 5899 2472 5891 C 2469 5881 2486 5879 2560 5884 C 2649 5889 2700 5906 2700 5930 C 2700 5942 2625 5941 2585 5929 z" stroke-linecap="round" />
</g>
		<g transform="matrix(0.13 0 0 -0.13 -159.79 -292.23)"  >
<path style="stroke: none; stroke-width: 1; stroke-dasharray: none; stroke-linecap: butt; stroke-dashoffset: 0; stroke-linejoin: miter; stroke-miterlimit: 4; fill: rgb(156,175,136); fill-rule: nonzero; opacity: 1;" vector-effect="non-scaling-stroke"  transform=" translate(-2370.47, -5870.08)" d="M 2345 5870 C 2338 5858 2357 5858 2385 5870 C 2403 5878 2402 5879 2378 5879 C 2363 5880 2348 5876 2345 5870 z" stroke-linecap="round" />
</g>
		<g transform="matrix(0.13 0 0 -0.13 -77.85 -244.31)"  >
<path style="stroke: none; stroke-width: 1; stroke-dasharray: none; stroke-linecap: butt; stroke-dashoffset: 0; stroke-linejoin: miter; stroke-miterlimit: 4; fill: rgb(156,175,136); fill-rule: nonzero; opacity: 1;" vector-effect="non-scaling-stroke"  transform=" translate(-2985, -5510.66)" d="M 2070 5832 C 2070 5818 2105 5790 2122 5790 C 2130 5790 2145 5781 2154 5771 C 2164 5760 2200 5740 2233 5727 C 2267 5713 2357 5672 2433 5636 C 2509 5600 2573 5570 2576 5570 C 2579 5570 2661 5539 2759 5501 C 2857 5463 2953 5427 2971 5422 C 2990 5416 3057 5393 3122 5371 C 3186 5349 3330 5306 3442 5276 C 3553 5246 3664 5214 3687 5206 C 3740 5187 3900 5173 3900 5187 C 3900 5193 3885 5203 3868 5210 C 3850 5217 3821 5234 3803 5246 C 3760 5278 3690 5303 3520 5345 C 3347 5389 3328 5394 3090 5475 C 2895 5541 2616 5646 2562 5674 C 2518 5697 2334 5756 2280 5765 C 2255 5769 2222 5780 2205 5790 C 2177 5807 2094 5840 2078 5840 C 2073 5840 2070 5836 2070 5832 z" stroke-linecap="round" />
</g>
		<g transform="matrix(0.13 0 0 -0.13 -82.35 -278.74)"  >
<path style="stroke: none; stroke-width: 1; stroke-dasharray: none; stroke-linecap: butt; stroke-dashoffset: 0; stroke-linejoin: miter; stroke-miterlimit: 4; fill: rgb(156,175,136); fill-rule: nonzero; opacity: 1;" vector-effect="non-scaling-stroke"  transform=" translate(-2951.26, -5768.88)" d="M 3005 5803 C 2983 5794 2943 5774 2917 5758 C 2891 5743 2865 5730 2859 5730 C 2853 5730 2852 5726 2855 5720 C 2861 5710 3033 5791 3045 5810 C 3053 5822 3054 5823 3005 5803 z" stroke-linecap="round" />
</g>
		<g transform="matrix(0.13 0 0 -0.13 -79.7 -270.88)"  >
<path style="stroke: none; stroke-width: 1; stroke-dasharray: none; stroke-linecap: butt; stroke-dashoffset: 0; stroke-linejoin: miter; stroke-miterlimit: 4; fill: rgb(156,175,136); fill-rule: nonzero; opacity: 1;" vector-effect="non-scaling-stroke"  transform=" translate(-2971.12, -5709.91)" d="M 2964 5721 C 2923 5702 2899 5680 2920 5680 C 2933 5680 3030 5728 3030 5735 C 3030 5745 3004 5739 2964 5721 z" stroke-linecap="round" />
</g>
		<g transform="matrix(0.13 0 0 -0.13 -200.62 -196.22)"  >
<path style="stroke: none; stroke-width: 1; stroke-dasharray: none; stroke-linecap: butt; stroke-dashoffset: 0; stroke-linejoin: miter; stroke-miterlimit: 4; fill: rgb(156,175,136); fill-rule: nonzero; opacity: 1;" vector-effect="non-scaling-stroke"  transform=" translate(-2064.26, -5150)" d="M 2071 5503 C 2042 5302 2027 5118 2026 4928 C 2025 4813 2028 4720 2032 4720 C 2036 4720 2040 4742 2040 4770 C 2040 4797 2044 4839 2050 4862 C 2085 5022 2107 5271 2102 5448 C 2100 5520 2094 5580 2090 5580 C 2086 5580 2077 5545 2071 5503 z" stroke-linecap="round" />
</g>
		<g transform="matrix(0.13 0 0 -0.13 74.02 -235.7)"  >
<path style="stroke: none; stroke-width: 1; stroke-dasharray: none; stroke-linecap: butt; stroke-dashoffset: 0; stroke-linejoin: miter; stroke-miterlimit: 4; fill: rgb(156,175,136); fill-rule: nonzero; opacity: 1;" vector-effect="non-scaling-stroke"  transform=" translate(-4124.01, -5446.07)" d="M 4195 5521 C 4173 5511 4115 5471 4067 5431 C 4019 5392 3974 5360 3968 5360 C 3962 5360 3959 5357 3962 5354 C 3974 5343 4082 5383 4123 5414 C 4146 5431 4185 5457 4210 5472 C 4235 5486 4264 5507 4274 5519 C 4293 5540 4293 5540 4264 5540 C 4248 5540 4217 5531 4195 5521 z" stroke-linecap="round" />
</g>
		<g transform="matrix(0.13 0 0 -0.13 -87.78 -101.66)"  >
<path style="stroke: none; stroke-width: 1; stroke-dasharray: none; stroke-linecap: butt; stroke-dashoffset: 0; stroke-linejoin: miter; stroke-miterlimit: 4; fill: rgb(156,175,136); fill-rule: nonzero; opacity: 1;" vector-effect="non-scaling-stroke"  transform=" translate(-2910.52, -4440.79)" d="M 2530 5462 C 2530 5457 2504 5423 2472 5384 C 2378 5272 2255 5055 2180 4870 C 2168 4840 2153 4802 2146 4785 C 2122 4729 2102 4645 2095 4570 C 2087 4483 2086 4479 2070 4421 C 2045 4328 2072 4113 2129 3958 C 2165 3858 2274 3723 2365 3664 C 2381 3654 2431 3616 2476 3580 C 2560 3513 2654 3468 2787 3429 C 3001 3368 3251 3459 3422 3659 C 3604 3872 3665 3985 3704 4175 C 3712 4214 3727 4292 3739 4350 C 3763 4466 3767 4616 3750 4695 C 3739 4747 3713 4820 3674 4905 C 3662 4933 3642 4978 3630 5005 C 3618 5033 3606 5057 3605 5058 C 3598 5065 3524 5035 3485 5009 C 3422 4968 3268 4884 3240 4875 C 3226 4871 3194 4857 3168 4844 C 3080 4800 3009 4819 2845 4931 C 2745 4999 2737 5009 2686 5115 C 2661 5167 2632 5223 2622 5238 C 2605 5262 2571 5365 2555 5443 C 2550 5467 2530 5482 2530 5462 z M 2455 4718 C 2505 4691 2575 4613 2592 4564 C 2635 4443 2622 4379 2535 4282 C 2421 4156 2293 4148 2197 4260 C 2170 4292 2159 4316 2151 4364 C 2131 4475 2135 4499 2186 4575 C 2241 4660 2254 4675 2305 4712 C 2339 4738 2351 4741 2388 4736 C 2411 4733 2442 4725 2455 4718 z M 3163 4414 C 3195 4403 3222 4384 3245 4357 C 3345 4237 3350 4229 3350 4186 C 3350 4124 3294 4014 3236 3963 C 3163 3898 3116 3880 3028 3880 C 2931 3880 2898 3901 2852 3990 C 2823 4046 2819 4062 2823 4110 C 2831 4198 2845 4245 2881 4305 C 2923 4374 2964 4417 2993 4423 C 3044 4433 3120 4429 3163 4414 z" stroke-linecap="round" />
</g>
		<g transform="matrix(0.13 0 0 -0.13 -162.51 -100.41)"  >
<path style="stroke: none; stroke-width: 1; stroke-dasharray: none; stroke-linecap: butt; stroke-dashoffset: 0; stroke-linejoin: miter; stroke-miterlimit: 4; fill: rgb(156,175,136); fill-rule: nonzero; opacity: 1;" vector-effect="non-scaling-stroke"  transform=" translate(-2350.04, -4431.36)" d="M 2262 4545 C 2213 4491 2208 4416 2247 4334 C 2274 4279 2344 4266 2406 4306 C 2460 4342 2498 4477 2469 4532 C 2454 4559 2400 4580 2341 4580 C 2298 4580 2289 4576 2262 4545 z" stroke-linecap="round" />
</g>
		<g transform="matrix(0.13 0 0 -0.13 -67.27 -61.04)"  >
<path style="stroke: none; stroke-width: 1; stroke-dasharray: none; stroke-linecap: butt; stroke-dashoffset: 0; stroke-linejoin: miter; stroke-miterlimit: 4; fill: rgb(156,175,136); fill-rule: nonzero; opacity: 1;" vector-effect="non-scaling-stroke"  transform=" translate(-3064.39, -4136.13)" d="M 2966 4257 C 2941 4232 2920 4156 2920 4090 C 2920 4007 2994 3972 3102 4004 C 3173 4024 3202 4055 3208 4120 C 3217 4213 3147 4280 3041 4280 C 3000 4280 2984 4275 2966 4257 z" stroke-linecap="round" />
</g>
		<g transform="matrix(0.13 0 0 -0.13 -85.1 -219.32)"  >
<path style="stroke: none; stroke-width: 1; stroke-dasharray: none; stroke-linecap: butt; stroke-dashoffset: 0; stroke-linejoin: miter; stroke-miterlimit: 4; fill: rgb(156,175,136); fill-rule: nonzero; opacity: 1;" vector-effect="non-scaling-stroke"  transform=" translate(-2930.66, -5323.24)" d="M 2700 5431 C 2700 5416 2722 5403 2802 5372 C 2844 5356 2908 5324 2944 5302 C 3004 5264 3148 5205 3158 5214 C 3180 5237 3087 5320 3038 5320 C 3022 5320 2993 5328 2972 5339 C 2952 5349 2899 5369 2855 5383 C 2811 5397 2758 5416 2738 5424 C 2717 5433 2700 5436 2700 5431 z" stroke-linecap="round" />
</g>
		<g transform="matrix(0.13 0 0 -0.13 95.48 -204.71)"  >
<path style="stroke: none; stroke-width: 1; stroke-dasharray: none; stroke-linecap: butt; stroke-dashoffset: 0; stroke-linejoin: miter; stroke-miterlimit: 4; fill: rgb(156,175,136); fill-rule: nonzero; opacity: 1;" vector-effect="non-scaling-stroke"  transform=" translate(-4285, -5213.65)" d="M 4281 5225 C 4264 5205 4250 5182 4250 5172 C 4250 5152 4319 5227 4320 5248 C 4320 5266 4315 5263 4281 5225 z" stroke-linecap="round" />
</g>
		<g transform="matrix(0.13 0 0 -0.13 -33.27 -202.82)"  >
<path style="stroke: none; stroke-width: 1; stroke-dasharray: none; stroke-linecap: butt; stroke-dashoffset: 0; stroke-linejoin: miter; stroke-miterlimit: 4; fill: rgb(156,175,136); fill-rule: nonzero; opacity: 1;" vector-effect="non-scaling-stroke"  transform=" translate(-3319.36, -5199.45)" d="M 3280 5210 C 3280 5189 3307 5170 3339 5170 C 3368 5170 3365 5182 3330 5208 C 3294 5235 3280 5236 3280 5210 z" stroke-linecap="round" />
</g>
		<g transform="matrix(0.13 0 0 -0.13 103.18 -203.49)"  >
<path style="stroke: none; stroke-width: 1; stroke-dasharray: none; stroke-linecap: butt; stroke-dashoffset: 0; stroke-linejoin: miter; stroke-miterlimit: 4; fill: rgb(156,175,136); fill-rule: nonzero; opacity: 1;" vector-effect="non-scaling-stroke"  transform=" translate(-4342.75, -5204.49)" d="M 4338 5213 C 4308 5177 4308 5166 4338 5194 C 4356 5211 4370 5225 4370 5227 C 4370 5236 4351 5228 4338 5213 z" stroke-linecap="round" />
</g>
		<g transform="matrix(0.13 0 0 -0.13 136.15 -190.22)"  >
<path style="stroke: none; stroke-width: 1; stroke-dasharray: none; stroke-linecap: butt; stroke-dashoffset: 0; stroke-linejoin: miter; stroke-miterlimit: 4; fill: rgb(156,175,136); fill-rule: nonzero; opacity: 1;" vector-effect="non-scaling-stroke"  transform=" translate(-4590, -5105)" d="M 4580 5105 C 4580 5083 4584 5071 4590 5075 C 4596 5078 4600 5092 4600 5105 C 4600 5118 4596 5132 4590 5135 C 4584 5139 4580 5127 4580 5105 z" stroke-linecap="round" />
</g>
		<g transform="matrix(0.13 0 0 -0.13 132.85 -166.92)"  >
<path style="stroke: none; stroke-width: 1; stroke-dasharray: none; stroke-linecap: butt; stroke-dashoffset: 0; stroke-linejoin: miter; stroke-miterlimit: 4; fill: rgb(156,175,136); fill-rule: nonzero; opacity: 1;" vector-effect="non-scaling-stroke"  transform=" translate(-4565.25, -4930.18)" d="M 4562 4930 C 4562 4911 4564 4903 4567 4913 C 4569 4922 4569 4938 4567 4948 C 4564 4957 4562 4949 4562 4930 z" stroke-linecap="round" />
</g>
		<g transform="matrix(0.13 0 0 -0.13 122.45 -85.88)"  >
<path style="stroke: none; stroke-width: 1; stroke-dasharray: none; stroke-linecap: butt; stroke-dashoffset: 0; stroke-linejoin: miter; stroke-miterlimit: 4; fill: rgb(156,175,136); fill-rule: nonzero; opacity: 1;" vector-effect="non-scaling-stroke"  transform=" translate(-4487.25, -4322.43)" d="M 4524 4743 C 4521 4722 4511 4676 4503 4640 C 4440 4356 4431 4292 4426 4036 C 4421 3824 4428 3813 4455 3985 C 4462 4035 4476 4118 4484 4170 C 4492 4222 4502 4308 4505 4360 C 4509 4412 4520 4516 4531 4591 C 4541 4666 4550 4739 4550 4754 C 4550 4793 4532 4785 4524 4743 z" stroke-linecap="round" />
</g>
		<g transform="matrix(0.13 0 0 -0.13 53.77 -92.81)"  >
<path style="stroke: none; stroke-width: 1; stroke-dasharray: none; stroke-linecap: butt; stroke-dashoffset: 0; stroke-linejoin: miter; stroke-miterlimit: 4; fill: rgb(156,175,136); fill-rule: nonzero; opacity: 1;" vector-effect="non-scaling-stroke"  transform=" translate(-3972.12, -4374.36)" d="M 3997 4763 C 3993 4760 3990 4721 3990 4677 C 3990 4634 3984 4575 3976 4547 C 3968 4518 3956 4416 3950 4320 C 3944 4224 3937 4108 3933 4063 C 3929 4005 3931 3980 3938 3980 C 3954 3980 3968 4039 3985 4172 C 3993 4234 4003 4319 4009 4360 C 4014 4402 4015 4472 4010 4520 C 4006 4567 4005 4642 4008 4688 C 4013 4767 4011 4778 3997 4763 z" stroke-linecap="round" />
</g>
		<g transform="matrix(0.13 0 0 -0.13 -209.85 -43.17)"  >
<path style="stroke: none; stroke-width: 1; stroke-dasharray: none; stroke-linecap: butt; stroke-dashoffset: 0; stroke-linejoin: miter; stroke-miterlimit: 4; fill: rgb(156,175,136); fill-rule: nonzero; opacity: 1;" vector-effect="non-scaling-stroke"  transform=" translate(-1995, -4002.09)" d="M 1980 4013 C 1980 3916 1990 3870 2004 3905 C 2012 3926 2012 4058 2004 4088 C 1990 4137 1980 4105 1980 4013 z" stroke-linecap="round" />
</g>
		<g transform="matrix(0.13 0 0 -0.13 47.46 -26.34)"  >
<path style="stroke: none; stroke-width: 1; stroke-dasharray: none; stroke-linecap: butt; stroke-dashoffset: 0; stroke-linejoin: miter; stroke-miterlimit: 4; fill: rgb(156,175,136); fill-rule: nonzero; opacity: 1;" vector-effect="non-scaling-stroke"  transform=" translate(-3924.81, -3875.86)" d="M 3921 3874 C 3921 3863 3924 3860 3927 3868 C 3930 3875 3929 3884 3926 3887 C 3923 3891 3920 3885 3921 3874 z" stroke-linecap="round" />
</g>
		<g transform="matrix(0.13 0 0 -0.13 -211.48 -13.07)"  >
<path style="stroke: none; stroke-width: 1; stroke-dasharray: none; stroke-linecap: butt; stroke-dashoffset: 0; stroke-linejoin: miter; stroke-miterlimit: 4; fill: rgb(156,175,136); fill-rule: nonzero; opacity: 1;" vector-effect="non-scaling-stroke"  transform=" translate(-1982.8, -3776.34)" d="M 1977 3780 C 1974 3769 1976 3757 1981 3754 C 1986 3751 1990 3760 1990 3774 C 1990 3805 1984 3808 1977 3780 z" stroke-linecap="round" />
</g>
		<g transform="matrix(0.13 0 0 -0.13 112.85 -7.77)"  >
<path style="stroke: none; stroke-width: 1; stroke-dasharray: none; stroke-linecap: butt; stroke-dashoffset: 0; stroke-linejoin: miter; stroke-miterlimit: 4; fill: rgb(156,175,136); fill-rule: nonzero; opacity: 1;" vector-effect="non-scaling-stroke"  transform=" translate(-4415.25, -3736.61)" d="M 4412 3735 C 4412 3719 4414 3713 4417 3723 C 4419 3732 4419 3746 4417 3753 C 4414 3759 4412 3752 4412 3735 z" stroke-linecap="round" />
</g>
		<g transform="matrix(0.13 0 0 -0.13 4.82 14.12)"  >
<path style="stroke: none; stroke-width: 1; stroke-dasharray: none; stroke-linecap: butt; stroke-dashoffset: 0; stroke-linejoin: miter; stroke-miterlimit: 4; fill: rgb(156,175,136); fill-rule: nonzero; opacity: 1;" vector-effect="non-scaling-stroke"  transform=" translate(-3605.04, -3572.4)" d="M 3628 3672 C 3569 3549 3550 3496 3550 3458 C 3550 3424 3552 3419 3565 3430 C 3594 3454 3670 3686 3659 3719 C 3657 3725 3643 3704 3628 3672 z" stroke-linecap="round" />
</g>
		<g transform="matrix(0.13 0 0 -0.13 38.8 15.32)"  >
<path style="stroke: none; stroke-width: 1; stroke-dasharray: none; stroke-linecap: butt; stroke-dashoffset: 0; stroke-linejoin: miter; stroke-miterlimit: 4; fill: rgb(156,175,136); fill-rule: nonzero; opacity: 1;" vector-effect="non-scaling-stroke"  transform=" translate(-3859.91, -3563.4)" d="M 3859 3598 C 3853 3574 3844 3543 3840 3529 C 3836 3515 3836 3497 3840 3490 C 3845 3482 3850 3489 3855 3511 C 3859 3530 3866 3550 3870 3555 C 3881 3569 3888 3640 3878 3640 C 3874 3640 3866 3621 3859 3598 z" stroke-linecap="round" />
</g>
		<g transform="matrix(0.13 0 0 -0.13 110.17 20.47)"  >
<path style="stroke: none; stroke-width: 1; stroke-dasharray: none; stroke-linecap: butt; stroke-dashoffset: 0; stroke-linejoin: miter; stroke-miterlimit: 4; fill: rgb(156,175,136); fill-rule: nonzero; opacity: 1;" vector-effect="non-scaling-stroke"  transform=" translate(-4395.13, -3524.82)" d="M 4386 3554 C 4377 3530 4379 3480 4389 3480 C 4397 3480 4410 3527 4410 3556 C 4410 3575 4394 3574 4386 3554 z" stroke-linecap="round" />
</g>
		<g transform="matrix(0.13 0 0 -0.13 -183.4 20.05)"  >
<path style="stroke: none; stroke-width: 1; stroke-dasharray: none; stroke-linecap: butt; stroke-dashoffset: 0; stroke-linejoin: miter; stroke-miterlimit: 4; fill: rgb(156,175,136); fill-rule: nonzero; opacity: 1;" vector-effect="non-scaling-stroke"  transform=" translate(-2193.37, -3527.97)" d="M 2167 3543 C 2163 3540 2160 3529 2160 3519 C 2160 3497 2191 3504 2216 3531 C 2232 3549 2232 3550 2203 3550 C 2187 3550 2170 3547 2167 3543 z" stroke-linecap="round" />
</g>
		<g transform="matrix(0.13 0 0 -0.13 34.18 35.75)"  >
<path style="stroke: none; stroke-width: 1; stroke-dasharray: none; stroke-linecap: butt; stroke-dashoffset: 0; stroke-linejoin: miter; stroke-miterlimit: 4; fill: rgb(156,175,136); fill-rule: nonzero; opacity: 1;" vector-effect="non-scaling-stroke"  transform=" translate(-3825.25, -3410.18)" d="M 3822 3410 C 3822 3396 3824 3391 3827 3398 C 3829 3404 3829 3416 3827 3423 C 3824 3429 3822 3424 3822 3410 z" stroke-linecap="round" />
</g>
		<g transform="matrix(0.13 0 0 -0.13 -141.98 41.73)"  >
<path style="stroke: none; stroke-width: 1; stroke-dasharray: none; stroke-linecap: butt; stroke-dashoffset: 0; stroke-linejoin: miter; stroke-miterlimit: 4; fill: rgb(156,175,136); fill-rule: nonzero; opacity: 1;" vector-effect="non-scaling-stroke"  transform=" translate(-2504, -3365.38)" d="M 2490 3378 C 2490 3359 2508 3335 2515 3342 C 2524 3351 2511 3390 2499 3390 C 2494 3390 2490 3384 2490 3378 z" stroke-linecap="round" />
</g>
		<g transform="matrix(0.13 0 0 -0.13 30.9 53.36)"  >
<path style="stroke: none; stroke-width: 1; stroke-dasharray: none; stroke-linecap: butt; stroke-dashoffset: 0; stroke-linejoin: miter; stroke-miterlimit: 4; fill: rgb(156,175,136); fill-rule: nonzero; opacity: 1;" vector-effect="non-scaling-stroke"  transform=" translate(-3800.64, -3278.09)" d="M 3797 3286 C 3792 3265 3791 3246 3794 3243 C 3803 3233 3812 3267 3808 3297 C 3805 3323 3804 3322 3797 3286 z" stroke-linecap="round" />
</g>
		<g transform="matrix(0.13 0 0 -0.13 -6.54 51.19)"  >
<path style="stroke: none; stroke-width: 1; stroke-dasharray: none; stroke-linecap: butt; stroke-dashoffset: 0; stroke-linejoin: miter; stroke-miterlimit: 4; fill: rgb(156,175,136); fill-rule: nonzero; opacity: 1;" vector-effect="non-scaling-stroke"  transform=" translate(-3519.81, -3294.4)" d="M 3517 3303 C 3513 3300 3510 3292 3510 3286 C 3510 3280 3515 3281 3522 3288 C 3528 3294 3531 3302 3529 3305 C 3526 3308 3520 3307 3517 3303 z" stroke-linecap="round" />
</g>
		<g transform="matrix(0.13 0 0 -0.13 -80.47 63.08)"  >
<path style="stroke: none; stroke-width: 1; stroke-dasharray: none; stroke-linecap: butt; stroke-dashoffset: 0; stroke-linejoin: miter; stroke-miterlimit: 4; fill: rgb(156,175,136); fill-rule: nonzero; opacity: 1;" vector-effect="non-scaling-stroke"  transform=" translate(-2965.35, -3205.21)" d="M 2955 3215 C 2927 3188 2923 3170 2944 3170 C 2957 3170 3000 3219 3000 3234 C 3000 3248 2978 3238 2955 3215 z" stroke-linecap="round" />
</g>
</g>
</g>
</svg>